<svg width="40" height="40" viewBox="0 0 40 40" fill="none" xmlns="http://www.w3.org/2000/svg">
<circle cx="20" cy="20" r="20" fill="#F0F5FF"/>
<path fill-rule="evenodd" clip-rule="evenodd" d="M12.9167 18.598C12.9167 14.7647 16.1199 11.6665 19.9946 11.6665C23.8801 11.6665 27.0834 14.7647 27.0834 18.598C27.0834 20.5296 26.3809 22.3229 25.2246 23.8428C23.949 25.5194 22.3768 26.9802 20.6071 28.1269C20.2021 28.3919 19.8366 28.4119 19.3921 28.1269C17.6123 26.9802 16.0401 25.5194 14.7754 23.8428C13.6183 22.3229 12.9167 20.5296 12.9167 18.598ZM17.6619 18.8138C17.6619 20.0979 18.7097 21.1079 19.9946 21.1079C21.2802 21.1079 22.3382 20.0979 22.3382 18.8138C22.3382 17.5397 21.2802 16.4805 19.9946 16.4805C18.7097 16.4805 17.6619 17.5397 17.6619 18.8138Z" fill="#3784FB"/>
</svg>
