<svg width="374" height="393" viewBox="0 0 374 393" fill="none" xmlns="http://www.w3.org/2000/svg">
<path d="M257.358 147.776H213.609V191.8H257.358V147.776Z" fill="#3A6FE5"/>
<path d="M257.365 103.194V85.847C253.421 86.3718 249.6 87.5877 246.078 89.4391C237.849 93.9664 229.392 99.0204 220.612 103.194H257.365Z" fill="#3A6FE5"/>
<path d="M305.241 108.696H262.867V142.266H305.241V108.696Z" fill="#3A6FE5"/>
<path d="M305.241 147.776H262.867V191.8H305.241V147.776Z" fill="#3A6FE5"/>
<path d="M257.358 108.696H213.609V142.266H257.358V108.696Z" fill="#3A6FE5"/>
<path d="M262.867 103.194H305.241V98.5566C291.596 88.9045 275.813 84.8409 262.867 85.3361V103.194Z" fill="#3A6FE5"/>
<path d="M319.279 258.94C319.279 258.94 345.704 199.503 334.7 145.025C330.919 126.318 321.888 112.477 310.758 102.856V197.286H208.107V108.696H207.832V108.413C201.189 110.708 194.219 111.921 187.191 112.005C165.734 112.005 151.971 96.0413 108.497 81.1859C65.0234 66.3305 26.4937 102.644 19.8913 144.475C13.2889 186.306 46.3087 227.571 45.2083 252.306C44.1079 277.041 36.2401 306.925 36.2401 306.925H324.23C324.23 306.925 313.769 287.558 319.279 258.94ZM133.783 162.081H76.0274V92.1899H133.814L133.783 162.081ZM181.359 168.133H143.168V121.909H181.43L181.359 168.133Z" fill="#3A6FE5"/>
<path d="M128.799 98.2422H81.0264V156.029H128.799V98.2422Z" fill="#3A6FE5"/>
<path d="M178.074 125.909H146.477V164.133H178.074V125.909Z" fill="#3A6FE5"/>
<g opacity="0.7">
<path d="M257.358 147.776H213.609V191.8H257.358V147.776Z" fill="white"/>
<path d="M257.365 103.194V85.847C253.421 86.3718 249.6 87.5877 246.078 89.4391C237.849 93.9664 229.392 99.0204 220.612 103.194H257.365Z" fill="white"/>
<path d="M305.241 108.696H262.867V142.266H305.241V108.696Z" fill="white"/>
<path d="M305.241 147.776H262.867V191.8H305.241V147.776Z" fill="white"/>
<path d="M257.358 108.696H213.609V142.266H257.358V108.696Z" fill="white"/>
<path d="M262.867 103.194H305.241V98.5566C291.596 88.9045 275.813 84.8409 262.867 85.3361V103.194Z" fill="white"/>
<path d="M319.279 258.94C319.279 258.94 345.704 199.503 334.7 145.025C330.919 126.318 321.888 112.477 310.758 102.856V197.286H208.107V108.696H207.832V108.413C201.189 110.708 194.219 111.921 187.191 112.005C165.734 112.005 151.971 96.0413 108.497 81.1859C65.0234 66.3305 26.4937 102.644 19.8913 144.475C13.2889 186.306 46.3087 227.571 45.2083 252.306C44.1079 277.041 36.2401 306.925 36.2401 306.925H324.23C324.23 306.925 313.769 287.558 319.279 258.94ZM133.783 162.081H76.0274V92.1899H133.814L133.783 162.081ZM181.359 168.133H143.168V121.909H181.43L181.359 168.133Z" fill="white"/>
<path d="M128.799 98.2422H81.0264V156.029H128.799V98.2422Z" fill="white"/>
<path d="M178.074 125.909H146.477V164.133H178.074V125.909Z" fill="white"/>
</g>
<path d="M186.932 309.943C275.922 309.943 348.062 308.068 348.062 305.754C348.062 303.44 275.922 301.565 186.932 301.565C97.9424 301.565 25.802 303.44 25.802 305.754C25.802 308.068 97.9424 309.943 186.932 309.943Z" fill="#263238"/>
<path d="M339.306 258.508C336.641 255.309 335.376 255.277 334.857 255.521C334.857 253.833 334.857 252.115 334.857 250.365C336.704 251.937 338.316 253.265 338.316 253.265C337.62 250.502 336.386 247.903 334.684 245.617C334.574 243.668 334.425 241.687 334.213 239.785C334.056 238.362 333.93 236.916 333.812 235.47C334.449 237.993 335.069 240.783 337.066 242.78C338.765 244.587 340.34 246.507 341.782 248.525C341.782 248.525 340.281 242.033 337.286 239.29C335.87 238.061 334.672 236.602 333.741 234.975C333.505 231.784 333.356 228.561 333.277 225.401C333.368 224.04 333.368 222.675 333.277 221.314L333.191 221.424C333.191 220.929 333.191 220.442 333.191 219.962C333.269 222.029 333.843 224.046 334.863 225.845C335.884 227.643 337.321 229.17 339.054 230.298C339.054 230.298 339.054 224.309 336.311 220.811C333.568 217.313 333.317 218.068 333.317 218.068C333.262 218.532 333.23 218.987 333.222 219.42C333.222 214.987 333.325 210.844 333.474 207.284C333.607 208.678 334.155 210 335.046 211.08C337.545 213.823 340.037 213.823 340.037 213.823C340.037 213.823 339.039 208.086 337.294 206.333C336.175 205.241 334.953 204.26 333.647 203.401C333.906 198.685 334.181 195.659 334.189 195.541C334.195 195.493 334.19 195.444 334.176 195.398C334.163 195.351 334.14 195.308 334.109 195.271C334.078 195.233 334.04 195.203 333.997 195.18C333.954 195.158 333.907 195.144 333.859 195.14C333.763 195.133 333.667 195.164 333.593 195.225C333.518 195.287 333.47 195.374 333.458 195.47C333.458 195.628 332.515 205.688 332.468 218.264C332.146 216.22 331.586 214.221 330.801 212.306C329.308 209.304 326.809 209.555 326.809 209.555C326.705 209.536 326.6 209.522 326.494 209.516C326.196 202.631 326.062 196.39 326.023 191.226C327.123 194.496 332.051 201.067 332.051 201.067C332.051 201.067 332.051 191.831 330.055 190.581C329.446 190.236 328.768 190.028 328.07 189.972C327.373 189.917 326.671 190.015 326.015 190.259C326.015 188.082 326.015 186.109 326.015 184.38L326.321 184.341L326.015 184.136C326.015 179.271 326.148 176.378 326.148 176.276C326.15 176.228 326.143 176.18 326.126 176.135C326.109 176.09 326.084 176.048 326.051 176.013C326.018 175.978 325.978 175.95 325.934 175.93C325.89 175.911 325.843 175.9 325.795 175.899C325.746 175.897 325.698 175.904 325.652 175.921C325.606 175.938 325.565 175.963 325.529 175.996C325.493 176.029 325.464 176.068 325.444 176.112C325.423 176.156 325.412 176.204 325.41 176.253C325.41 176.331 325.315 179.059 325.284 183.665C324.231 183.075 322.58 182.36 321.354 182.831C319.357 183.617 318.108 192.067 318.108 192.067C318.108 192.067 321.472 185.779 325.307 184.529C325.307 189.505 325.307 196.437 325.606 204.509C324.718 204.391 321.597 204.132 320.104 206.081C318.351 208.321 315.86 216.064 315.86 216.064L325.606 204.847C325.658 206.419 325.721 208.033 325.795 209.689C325.582 209.925 325.669 210.381 325.85 210.915C326.101 216.142 326.439 221.723 326.919 227.421C325.502 229.001 324.224 230.7 323.099 232.499C320.348 236.743 320.104 243.236 320.104 243.236C320.104 243.236 326.282 236.806 327.5 233.953C327.995 239.714 328.373 245.122 328.656 250.066C327.991 251.767 327.04 253.341 325.842 254.719C323.342 257.714 323.342 264.458 323.342 264.458C323.342 264.458 328.058 262.257 328.915 254.971C329.654 270.478 329.465 280.335 329.457 280.476C329.456 280.525 329.465 280.573 329.482 280.618C329.5 280.663 329.526 280.705 329.56 280.74C329.594 280.775 329.634 280.803 329.678 280.822C329.723 280.842 329.77 280.852 329.819 280.854V280.854C329.867 280.855 329.915 280.846 329.96 280.828C330.005 280.811 330.045 280.784 330.08 280.75C330.114 280.717 330.141 280.677 330.16 280.632C330.179 280.588 330.188 280.54 330.188 280.492C330.188 280.319 330.495 264.937 328.891 242.324C328.968 243.242 329.199 244.14 329.575 244.98C330.063 245.947 332.114 247.897 334.103 249.657C334.158 251.803 334.158 253.917 334.103 255.984C333.157 256.828 332.526 257.967 332.311 259.215C331.74 261.935 331.322 264.685 331.061 267.452C332.407 266.051 333.371 264.326 333.859 262.445C333.501 269.068 332.772 275.665 331.674 282.205C331.658 282.302 331.68 282.401 331.736 282.482C331.791 282.563 331.876 282.619 331.973 282.638H332.043C332.13 282.637 332.214 282.606 332.28 282.55C332.346 282.494 332.39 282.417 332.405 282.331C333.84 273.702 334.654 264.981 334.842 256.236C335.305 257.022 336.303 258.696 337.561 260.488C339.306 262.988 343.55 266.729 343.55 266.729C343.55 266.729 343.055 263.003 339.306 258.508ZM332.814 243.778C328.821 240.783 328.821 239.785 328.821 239.785C328.796 240.275 328.796 240.765 328.821 241.255C328.593 238.111 328.326 234.841 328.035 231.461C328.092 229.947 327.96 228.431 327.642 226.95C327.272 222.454 326.989 218.076 326.761 213.878C327.547 215.718 330.951 220.379 332.539 222.524V222.611C331.706 224.191 331.055 225.86 330.597 227.586C329.831 230.144 330.01 232.891 331.1 235.328C331.825 233.522 332.375 231.651 332.743 229.74C332.9 233.135 333.144 236.562 333.529 239.895C333.702 241.514 333.838 243.136 333.938 244.76C333.587 244.406 333.212 244.078 332.814 243.778V243.778Z" fill="#263238"/>
<path d="M337.648 307.271H324.482L321.668 277.647H340.469L337.648 307.271Z" fill="#263238"/>
<path d="M218.451 203.731V232.349H185.36C183.598 232.348 181.854 232.694 180.226 233.368C178.598 234.041 177.119 235.029 175.873 236.274C174.627 237.519 173.639 238.998 172.964 240.625C172.29 242.253 171.943 243.997 171.943 245.759V245.759C171.943 249.317 173.357 252.73 175.873 255.246C178.389 257.762 181.802 259.176 185.36 259.176C186.14 259.176 186.887 259.485 187.439 260.037C187.99 260.588 188.3 261.336 188.3 262.115V306.917H251.384V203.731C251.384 199.381 249.667 195.206 246.605 192.115C243.544 189.024 239.386 187.267 235.035 187.225V187.225C232.861 187.215 230.706 187.634 228.695 188.459C226.683 189.284 224.854 190.498 223.313 192.032C221.772 193.566 220.549 195.389 219.715 197.396C218.88 199.404 218.451 201.557 218.451 203.731V203.731Z" fill="#3A6FE5" stroke="#263238" stroke-width="0.786" stroke-miterlimit="10"/>
<path d="M228.928 203.731V232.349H195.837C194.076 232.348 192.331 232.694 190.703 233.368C189.076 234.041 187.597 235.029 186.351 236.274C185.105 237.519 184.116 238.998 183.442 240.625C182.767 242.253 182.42 243.997 182.42 245.759V245.759C182.42 249.317 183.834 252.73 186.35 255.246C188.866 257.762 192.279 259.176 195.837 259.176C196.617 259.176 197.365 259.485 197.916 260.037C198.467 260.588 198.777 261.336 198.777 262.115V306.917H261.885V203.731C261.885 199.381 260.168 195.206 257.106 192.115C254.045 189.024 249.887 187.267 245.536 187.225C243.36 187.212 241.203 187.629 239.188 188.452C237.174 189.276 235.342 190.489 233.799 192.023C232.255 193.557 231.03 195.382 230.194 197.391C229.358 199.4 228.928 201.555 228.928 203.731Z" fill="#3A6FE5" stroke="#263238" stroke-width="0.786" stroke-miterlimit="10"/>
<path d="M237.629 251.52L224.66 253.878C224.66 253.878 224.267 260.559 221.909 264.882C220.29 267.595 217.795 269.674 214.835 270.777L211.691 285.318C211.691 285.318 219.158 302.61 219.158 304.575C219.158 306.54 216.407 306.933 216.407 306.933H200.687V246.804H239.594L237.629 251.52Z" fill="#263238"/>
<path d="M223.56 240.579V203.079C223.56 194.268 230.956 187.123 240.066 187.123H308.448C317.565 187.123 324.954 194.268 324.954 203.079V246.914H238.234L223.56 240.579Z" fill="#3A6FE5" stroke="#263238" stroke-width="0.786" stroke-miterlimit="10"/>
<path d="M280.254 187.115L278.808 193.167L287.54 195.832C287.54 195.832 291.148 197.129 292.625 200.43C294.103 203.731 295.046 210.837 295.046 210.837L295.29 217.612V231.084H266.994L270.861 193.67L274.492 187.382L280.254 187.115Z" fill="#263238"/>
<path d="M257.035 269.394C245.754 270.502 234.423 271.014 223.088 270.926C205.969 270.675 195.751 268.883 195.751 268.883" stroke="#263238" stroke-width="0.786" stroke-miterlimit="10"/>
<path d="M253.325 194.849C253.325 194.849 222.09 211.717 220.557 213.792C219.024 215.867 218.065 220.08 223.434 220.497C228.802 220.913 249.112 213.218 249.112 213.218L253.325 194.849Z" fill="white"/>
<path d="M250.645 202.002L247.871 206.883L245.182 202.041L246.597 208.927L244.601 208.856L245.465 210.962L228.26 217.565C228.26 217.565 233.903 218.217 238.203 216.622C242.502 215.026 246.361 213.996 246.361 213.996L250.645 202.002Z" fill="#3A6FE5"/>
<g style="mix-blend-mode:multiply" opacity="0.3">
<path d="M250.645 202.002L247.871 206.883L245.182 202.041L246.597 208.927L244.601 208.856L245.465 210.962L228.26 217.565C228.26 217.565 233.903 218.217 238.203 216.622C242.502 215.026 246.361 213.996 246.361 213.996L250.645 202.002Z" fill="#263238"/>
</g>
<path d="M253.325 194.849C253.325 194.849 222.09 211.717 220.557 213.792C219.024 215.867 218.065 220.08 223.434 220.497C228.802 220.913 249.112 213.218 249.112 213.218L253.325 194.849Z" stroke="#263238" stroke-width="0.786" stroke-linecap="round" stroke-linejoin="round"/>
<path d="M244.585 178.225C246.112 177.623 247.534 176.782 248.798 175.734C250.142 174.39 250.716 175.545 250.716 176.308C250.716 177.07 251.101 178.996 249.183 179.758C247.265 180.521 244.585 180.143 244.585 178.225Z" fill="white" stroke="#263238" stroke-width="0.786" stroke-linecap="round" stroke-linejoin="round"/>
<path d="M240.239 180.057C241.082 179.312 241.999 178.654 242.974 178.092C243.76 177.809 248.523 176.441 249.584 176.929C250.645 177.416 252.052 179.546 252.484 180.395C252.917 181.244 252.626 182.478 251.698 182.431C250.771 182.383 248.405 179.617 248.405 179.617L244.475 180.921C244.475 180.921 242.848 181.645 242.054 181.181C241.26 180.717 240.451 180.984 240.239 180.057Z" fill="white" stroke="#263238" stroke-width="0.786" stroke-linecap="round" stroke-linejoin="round"/>
<path d="M240.466 178.752C240.466 178.752 242.259 178.076 242.777 178.477C243.748 179.1 244.808 179.572 245.921 179.876C247.564 180.403 249.395 181.008 249.788 182.234C250.181 183.46 248.216 185.323 248.216 185.323C246.481 184.13 244.681 183.033 242.824 182.038C241.166 181.204 238.478 179.326 240.466 178.752Z" fill="white" stroke="#263238" stroke-width="0.786" stroke-linecap="round" stroke-linejoin="round"/>
<path d="M243.603 180.851L241.873 179.593C241.873 179.593 240.301 178.367 239.515 179.326C239.515 179.326 237.024 188.719 236.639 189.866C236.253 191.014 217.877 208.29 216.918 212.094C216.55 213.617 216.782 215.224 217.566 216.58C218.351 217.937 219.627 218.94 221.131 219.38C223.434 219.954 226.499 213.823 227.835 210.734C229.172 207.645 239.72 191.572 239.72 191.572C240.342 191.778 241.015 191.778 241.638 191.572C242.372 191.036 243.019 190.389 243.555 189.654L245.473 188.868C246.424 188.491 248.727 184.655 248.916 184.081C248.926 184.024 248.926 183.965 248.916 183.908C247.595 182.187 243.603 180.851 243.603 180.851Z" fill="white"/>
<g style="mix-blend-mode:multiply">
<path d="M219.622 218.705C220.086 219.007 220.596 219.236 221.131 219.38C223.434 219.954 226.499 213.823 227.835 210.734C229.172 207.645 239.72 191.572 239.72 191.572C239.72 191.572 220.023 213.58 219.457 216.724C219.338 217.387 219.395 218.07 219.622 218.705V218.705Z" fill="#3A6FE5"/>
</g>
<g style="mix-blend-mode:multiply" opacity="0.3">
<path d="M219.622 218.705C220.086 219.007 220.596 219.236 221.131 219.38C223.434 219.954 226.499 213.823 227.835 210.734C229.172 207.645 239.72 191.572 239.72 191.572C239.72 191.572 220.023 213.58 219.457 216.724C219.338 217.387 219.395 218.07 219.622 218.705V218.705Z" fill="#263238"/>
</g>
<path d="M243.603 180.851L241.873 179.593C241.873 179.593 240.301 178.367 239.515 179.326C239.515 179.326 237.024 188.719 236.639 189.866C236.253 191.014 217.877 208.29 216.918 212.094C216.55 213.617 216.782 215.224 217.566 216.58C218.351 217.937 219.627 218.94 221.131 219.38C223.434 219.954 226.499 213.823 227.835 210.734C229.172 207.645 239.72 191.572 239.72 191.572C240.342 191.778 241.015 191.778 241.638 191.572C242.372 191.036 243.019 190.389 243.555 189.654L245.473 188.868C246.424 188.491 248.727 184.655 248.916 184.081C248.926 184.024 248.926 183.965 248.916 183.908C247.595 182.187 243.603 180.851 243.603 180.851Z" stroke="#263238" stroke-width="0.786" stroke-linecap="round" stroke-linejoin="round"/>
<path d="M241.842 186.785C242.684 187.095 243.56 187.304 244.451 187.406" stroke="#263238" stroke-width="0.786" stroke-linecap="round" stroke-linejoin="round"/>
<path d="M243.21 187.532C243.21 187.532 241.638 189.583 243.556 189.678" stroke="#263238" stroke-width="0.786" stroke-linecap="round" stroke-linejoin="round"/>
<path d="M240.891 182.47C240.891 182.47 245.198 184.545 245.945 185.292C246.271 185.552 246.507 185.909 246.619 186.311C246.732 186.712 246.716 187.139 246.574 187.532" stroke="#263238" stroke-width="0.786" stroke-linecap="round" stroke-linejoin="round"/>
<path d="M253.514 181.566C253.514 181.566 252.571 183.138 253.042 183.578C253.514 184.018 254.929 184.286 255.047 183.224C255.165 182.163 254.929 181.204 253.514 181.566Z" fill="white" stroke="#263238" stroke-width="0.786" stroke-linecap="round" stroke-linejoin="round"/>
<path d="M208.736 294.263C208.736 294.263 213.342 300.904 213.342 302.445C213.342 303.986 205.419 306.021 202.094 306.273C198.769 306.524 190.854 307.295 187.529 306.784C184.205 306.273 187.529 304.999 190.854 302.696C194.179 300.393 197.244 299.631 198.007 297.077L208.736 294.263Z" fill="#263238" stroke="#263238" stroke-width="0.786" stroke-miterlimit="10"/>
<path d="M202.094 306.273C205.419 306.021 213.342 303.978 213.342 302.445C213.246 301.853 213.043 301.283 212.744 300.763C208.205 302.931 203.288 304.196 198.266 304.488C192.945 304.764 189.557 304.811 187.569 304.803C185.997 305.817 185.415 306.461 187.529 306.784C190.862 307.326 198.777 306.54 202.094 306.273Z" fill="white" stroke="#263238" stroke-width="0.786" stroke-miterlimit="10"/>
<path d="M210.276 235.926C210.276 235.926 192.128 234.354 188.551 235.415C184.975 236.476 184.464 241.035 185.486 244.36C186.508 247.684 198.007 297.108 198.007 297.108L208.736 294.294L202.864 257.163L210.276 235.926Z" fill="white"/>
<path d="M207.187 239.84C207.187 239.84 199.579 238.001 199.846 239.313C200.113 240.626 200.632 242.725 200.632 242.725C200.632 242.725 196.168 237.474 195.641 240.885C195.114 244.297 202.715 260.04 202.715 260.04L207.187 239.84Z" fill="#3A6FE5"/>
<g style="mix-blend-mode:multiply" opacity="0.3">
<path d="M207.187 239.84C207.187 239.84 199.579 238.001 199.846 239.313C200.113 240.626 200.632 242.725 200.632 242.725C200.632 242.725 196.168 237.474 195.641 240.885C195.114 244.297 202.715 260.04 202.715 260.04L207.187 239.84Z" fill="#263238"/>
</g>
<path d="M210.276 235.926C210.276 235.926 192.128 234.354 188.551 235.415C184.975 236.476 184.464 241.035 185.486 244.36C186.508 247.684 198.007 297.108 198.007 297.108L208.736 294.294L202.864 257.163L210.276 235.926Z" stroke="#263238" stroke-width="0.786" stroke-miterlimit="10"/>
<path d="M198.934 242.788L203.045 248.84L202.566 242.057" stroke="#263238" stroke-width="0.786" stroke-linecap="round" stroke-linejoin="round"/>
<path d="M268.464 191.399C268.464 191.399 253.899 194.276 253.325 194.849C252.752 195.423 239.531 233.756 239.531 233.756H273.447C273.447 233.756 288.971 196.028 287.595 195.046C286.22 194.063 271.341 190.998 268.464 191.399Z" fill="white" stroke="#263238" stroke-width="0.786" stroke-linecap="round" stroke-linejoin="round"/>
<path d="M279.892 209.1L279.224 210.562L274.964 207.496L278.029 211.764L270.696 211.23L275.499 214.295L267.639 228.019L275.899 226.682L281.354 214.295L279.892 209.1Z" fill="#3A6FE5"/>
<g style="mix-blend-mode:multiply" opacity="0.3">
<path d="M279.892 209.1L279.224 210.562L274.964 207.496L278.029 211.764L270.696 211.23L275.499 214.295L267.639 228.019L275.899 226.682L281.354 214.295L279.892 209.1Z" fill="#263238"/>
</g>
<path d="M273.141 205.61L281.362 213.218L273.549 212.189" stroke="#263238" stroke-width="0.786" stroke-linecap="round" stroke-linejoin="round"/>
<path d="M268.464 191.399C268.464 191.399 265.477 191.988 262.176 192.688C261.453 195.683 259.904 202.371 260.054 204.431C260.242 207.119 262.349 206.16 264.078 205.775C265.587 205.437 273.911 195.926 276.56 192.326C272.991 191.682 269.666 191.242 268.464 191.399Z" fill="#263238" stroke="#263238" stroke-width="0.786" stroke-linecap="round" stroke-linejoin="round"/>
<path d="M246.322 218.429H252.909L247.823 234.558H241.048L246.322 218.429Z" fill="#263238"/>
<path d="M265.21 189.481C265.21 189.481 261.374 202.898 262.718 203.095C264.062 203.291 272.488 193.891 273.258 191.973C274.029 190.055 276.717 183.728 276.717 183.728C276.717 183.728 271.341 189.104 265.21 189.481Z" fill="white" stroke="#263238" stroke-width="0.786" stroke-linecap="round" stroke-linejoin="round"/>
<g style="mix-blend-mode:multiply">
<path d="M273.258 191.973C274.044 190.063 276.717 183.728 276.717 183.728C276.717 183.728 271.341 189.104 265.21 189.481L264.943 190.424C265.909 191.21 267.709 192.523 268.566 192.712C269.423 192.9 267.78 197.152 266.593 200.013C269.462 197.145 272.787 193.152 273.258 191.973Z" fill="#3A6FE5"/>
</g>
<g style="mix-blend-mode:multiply" opacity="0.3">
<path d="M273.258 191.973C274.044 190.063 276.717 183.728 276.717 183.728C276.717 183.728 271.341 189.104 265.21 189.481L264.943 190.424C265.909 191.21 267.709 192.523 268.566 192.712C269.423 192.9 267.78 197.152 266.593 200.013C269.462 197.145 272.787 193.152 273.258 191.973Z" fill="#263238"/>
</g>
<path d="M259.535 167.937C259.535 167.937 251.18 168.864 250.016 163.527C248.853 158.19 253.742 157.2 256.752 159.597C259.055 161.421 255.125 156.115 258.372 154.26C261.618 152.405 262.089 154.724 265.807 155.424C269.525 156.123 271.144 154.96 276.945 154.96C282.745 154.96 283.453 160.996 283.453 164.706C283.453 168.416 281.362 177.942 281.362 177.942C281.362 177.942 277.88 178.87 275.326 177.942C272.771 177.015 269.753 174.012 270.68 172.142C271.608 170.271 269.289 169.352 266.963 169.352C264.636 169.352 259.535 167.937 259.535 167.937Z" fill="#263238" stroke="#263238" stroke-width="0.786" stroke-linecap="round" stroke-linejoin="round"/>
<path d="M270.594 165.964C272.076 165.782 273.544 165.501 274.988 165.123C281.362 163.48 283.414 166.152 283.414 166.152" stroke="white" stroke-width="0.5895" stroke-linecap="round" stroke-linejoin="round"/>
<path d="M264.919 165.948C265.734 166.093 266.56 166.161 267.387 166.153" stroke="white" stroke-width="0.5895" stroke-linecap="round" stroke-linejoin="round"/>
<path d="M276.017 168.62C276.017 168.62 280.332 168.204 282.384 170.468" stroke="white" stroke-width="0.5895" stroke-linecap="round" stroke-linejoin="round"/>
<path d="M223.379 217.588C223.379 217.789 223.319 217.985 223.208 218.152C223.097 218.318 222.938 218.448 222.753 218.525C222.568 218.602 222.364 218.622 222.167 218.583C221.97 218.544 221.79 218.447 221.648 218.305C221.506 218.163 221.41 217.983 221.37 217.786C221.331 217.589 221.351 217.386 221.428 217.2C221.505 217.015 221.635 216.857 221.802 216.745C221.968 216.634 222.164 216.574 222.365 216.574C222.498 216.574 222.63 216.601 222.753 216.652C222.876 216.702 222.988 216.777 223.082 216.871C223.176 216.965 223.251 217.077 223.302 217.2C223.353 217.323 223.379 217.455 223.379 217.588Z" fill="white" stroke="#263238" stroke-width="0.393" stroke-miterlimit="10"/>
<path d="M223.953 217.895C224.656 217.895 225.226 217.325 225.226 216.622C225.226 215.918 224.656 215.348 223.953 215.348C223.249 215.348 222.679 215.918 222.679 216.622C222.679 217.325 223.249 217.895 223.953 217.895Z" fill="white" stroke="#263238" stroke-width="0.393" stroke-miterlimit="10"/>
<path d="M223.599 219.396C224.111 219.396 224.526 218.981 224.526 218.469C224.526 217.956 224.111 217.541 223.599 217.541C223.087 217.541 222.671 217.956 222.671 218.469C222.671 218.981 223.087 219.396 223.599 219.396Z" fill="white" stroke="#263238" stroke-width="0.393" stroke-miterlimit="10"/>
<path d="M246.102 217.541C246.104 217.742 246.046 217.939 245.935 218.107C245.825 218.274 245.667 218.406 245.482 218.484C245.297 218.562 245.092 218.583 244.895 218.545C244.698 218.506 244.517 218.41 244.374 218.269C244.231 218.127 244.134 217.947 244.094 217.75C244.055 217.553 244.074 217.349 244.151 217.163C244.227 216.977 244.357 216.818 244.524 216.707C244.691 216.595 244.887 216.535 245.088 216.535C245.356 216.535 245.612 216.641 245.802 216.829C245.992 217.018 246.1 217.274 246.102 217.541Z" fill="white" stroke="#263238" stroke-width="0.393" stroke-miterlimit="10"/>
<path d="M247.949 216.574C247.951 216.828 247.877 217.077 247.737 217.289C247.596 217.501 247.396 217.666 247.162 217.764C246.928 217.862 246.669 217.888 246.42 217.839C246.171 217.79 245.942 217.668 245.762 217.488C245.582 217.308 245.46 217.079 245.411 216.83C245.362 216.581 245.388 216.323 245.486 216.088C245.584 215.854 245.749 215.654 245.961 215.514C246.173 215.373 246.422 215.299 246.676 215.301C247.014 215.301 247.337 215.435 247.576 215.674C247.815 215.913 247.949 216.237 247.949 216.574V216.574Z" fill="white" stroke="#263238" stroke-width="0.393" stroke-miterlimit="10"/>
<path d="M247.25 218.429C247.25 218.613 247.195 218.792 247.093 218.945C246.991 219.097 246.847 219.216 246.677 219.286C246.508 219.357 246.321 219.375 246.141 219.339C245.961 219.303 245.796 219.215 245.666 219.085C245.537 218.956 245.448 218.79 245.412 218.61C245.377 218.431 245.395 218.244 245.465 218.075C245.535 217.905 245.654 217.76 245.807 217.658C245.959 217.556 246.139 217.502 246.322 217.502C246.444 217.501 246.565 217.524 246.678 217.57C246.791 217.617 246.894 217.685 246.98 217.771C247.067 217.858 247.135 217.96 247.181 218.073C247.227 218.186 247.251 218.307 247.25 218.429V218.429Z" fill="white" stroke="#263238" stroke-width="0.393" stroke-miterlimit="10"/>
<path d="M234.831 215.694C234.831 215.895 234.771 216.091 234.66 216.257C234.549 216.424 234.39 216.554 234.205 216.631C234.02 216.708 233.816 216.728 233.619 216.689C233.422 216.649 233.242 216.553 233.1 216.411C232.958 216.269 232.862 216.089 232.822 215.892C232.783 215.695 232.803 215.491 232.88 215.306C232.957 215.121 233.087 214.962 233.254 214.851C233.42 214.74 233.616 214.68 233.817 214.68C233.95 214.68 234.082 214.706 234.205 214.757C234.328 214.808 234.44 214.883 234.534 214.977C234.628 215.071 234.703 215.183 234.754 215.306C234.805 215.429 234.831 215.561 234.831 215.694Z" fill="white" stroke="#263238" stroke-width="0.393" stroke-miterlimit="10"/>
<path d="M236.678 214.727C236.678 214.981 236.603 215.228 236.462 215.439C236.321 215.65 236.121 215.814 235.887 215.911C235.653 216.008 235.395 216.033 235.147 215.984C234.898 215.934 234.67 215.812 234.491 215.633C234.312 215.454 234.19 215.226 234.14 214.977C234.091 214.729 234.116 214.471 234.213 214.237C234.31 214.003 234.474 213.803 234.685 213.662C234.896 213.521 235.143 213.446 235.397 213.446C235.565 213.445 235.732 213.478 235.888 213.542C236.044 213.606 236.186 213.7 236.305 213.819C236.424 213.938 236.519 214.08 236.583 214.236C236.647 214.392 236.679 214.559 236.678 214.727V214.727Z" fill="white" stroke="#263238" stroke-width="0.393" stroke-miterlimit="10"/>
<path d="M235.051 217.502C235.563 217.502 235.978 217.087 235.978 216.574C235.978 216.062 235.563 215.647 235.051 215.647C234.539 215.647 234.123 216.062 234.123 216.574C234.123 217.087 234.539 217.502 235.051 217.502Z" fill="white" stroke="#263238" stroke-width="0.393" stroke-miterlimit="10"/>
<path d="M231.302 215.56C231.862 215.56 232.316 215.106 232.316 214.547C232.316 213.987 231.862 213.533 231.302 213.533C230.742 213.533 230.288 213.987 230.288 214.547C230.288 215.106 230.742 215.56 231.302 215.56Z" fill="white" stroke="#263238" stroke-width="0.393" stroke-miterlimit="10"/>
<path d="M234.171 213.58C234.184 213.756 234.162 213.933 234.104 214.1C234.046 214.267 233.954 214.42 233.834 214.55C233.714 214.679 233.569 214.783 233.407 214.854C233.245 214.925 233.07 214.961 232.893 214.961C232.717 214.961 232.542 214.925 232.38 214.854C232.218 214.783 232.073 214.679 231.953 214.55C231.833 214.42 231.741 214.267 231.683 214.1C231.625 213.933 231.602 213.756 231.616 213.58C231.641 213.258 231.787 212.958 232.024 212.739C232.26 212.52 232.571 212.399 232.893 212.399C233.216 212.399 233.526 212.52 233.763 212.739C234 212.958 234.145 213.258 234.171 213.58Z" fill="white" stroke="#263238" stroke-width="0.393" stroke-miterlimit="10"/>
<path d="M233.463 215.435C233.463 215.618 233.409 215.797 233.307 215.95C233.205 216.103 233.06 216.221 232.891 216.292C232.721 216.362 232.535 216.38 232.355 216.344C232.175 216.309 232.01 216.22 231.88 216.091C231.75 215.961 231.662 215.796 231.626 215.616C231.59 215.436 231.609 215.249 231.679 215.08C231.749 214.91 231.868 214.765 232.02 214.664C232.173 214.562 232.352 214.507 232.536 214.507C232.658 214.506 232.779 214.529 232.892 214.576C233.005 214.622 233.108 214.69 233.194 214.777C233.28 214.863 233.349 214.966 233.395 215.079C233.441 215.192 233.464 215.313 233.463 215.435V215.435Z" fill="white" stroke="#263238" stroke-width="0.393" stroke-miterlimit="10"/>
<path d="M239.233 215.435C239.233 215.635 239.173 215.831 239.062 215.998C238.95 216.165 238.792 216.295 238.607 216.372C238.421 216.448 238.217 216.468 238.021 216.429C237.824 216.39 237.643 216.294 237.502 216.152C237.36 216.01 237.263 215.829 237.224 215.633C237.185 215.436 237.205 215.232 237.282 215.047C237.359 214.861 237.489 214.703 237.655 214.592C237.822 214.48 238.018 214.421 238.219 214.421C238.352 214.42 238.484 214.445 238.608 214.496C238.731 214.546 238.844 214.621 238.938 214.715C239.032 214.81 239.107 214.922 239.157 215.045C239.208 215.169 239.234 215.301 239.233 215.435Z" fill="white" stroke="#263238" stroke-width="0.393" stroke-miterlimit="10"/>
<path d="M239.806 215.733C240.509 215.733 241.08 215.163 241.08 214.46C241.08 213.757 240.509 213.187 239.806 213.187C239.103 213.187 238.533 213.757 238.533 214.46C238.533 215.163 239.103 215.733 239.806 215.733Z" fill="white" stroke="#263238" stroke-width="0.393" stroke-miterlimit="10"/>
<path d="M239.452 217.242C239.965 217.242 240.38 216.827 240.38 216.315C240.38 215.803 239.965 215.387 239.452 215.387C238.94 215.387 238.525 215.803 238.525 216.315C238.525 216.827 238.94 217.242 239.452 217.242Z" fill="white" stroke="#263238" stroke-width="0.393" stroke-miterlimit="10"/>
<path d="M242.84 215.167C242.913 214.981 243.039 214.819 243.203 214.704C243.367 214.589 243.561 214.525 243.762 214.52C243.962 214.515 244.159 214.57 244.329 214.677C244.498 214.785 244.632 214.94 244.713 215.123C244.794 215.306 244.819 215.509 244.785 215.707C244.751 215.904 244.659 216.087 244.52 216.233C244.382 216.378 244.204 216.479 244.009 216.523C243.813 216.567 243.609 216.552 243.422 216.48C243.297 216.432 243.184 216.36 243.087 216.268C242.99 216.176 242.913 216.066 242.859 215.944C242.805 215.823 242.775 215.691 242.772 215.558C242.769 215.425 242.792 215.292 242.84 215.167V215.167Z" fill="white" stroke="#263238" stroke-width="0.393" stroke-miterlimit="10"/>
<path d="M240.765 215.364C240.857 215.128 241.017 214.924 241.224 214.779C241.432 214.633 241.678 214.553 241.931 214.547C242.184 214.541 242.433 214.611 242.647 214.747C242.861 214.883 243.03 215.079 243.132 215.311C243.234 215.543 243.265 215.8 243.221 216.05C243.177 216.299 243.061 216.53 242.886 216.713C242.711 216.896 242.485 217.023 242.238 217.078C241.99 217.134 241.732 217.114 241.496 217.022C241.339 216.962 241.196 216.87 241.074 216.754C240.953 216.638 240.855 216.499 240.787 216.345C240.719 216.191 240.682 216.025 240.679 215.856C240.675 215.688 240.704 215.521 240.765 215.364V215.364Z" fill="white" stroke="#263238" stroke-width="0.393" stroke-miterlimit="10"/>
<path d="M242.101 213.933C242.144 213.819 242.209 213.715 242.292 213.627C242.376 213.538 242.476 213.467 242.588 213.418C242.699 213.369 242.819 213.343 242.941 213.341C243.062 213.339 243.183 213.361 243.296 213.407C243.468 213.473 243.616 213.588 243.722 213.738C243.828 213.888 243.887 214.066 243.892 214.25C243.896 214.434 243.846 214.615 243.748 214.77C243.649 214.925 243.507 215.048 243.339 215.122C243.17 215.196 242.984 215.218 242.803 215.186C242.622 215.154 242.455 215.069 242.322 214.942C242.189 214.815 242.098 214.651 242.058 214.471C242.019 214.292 242.034 214.105 242.101 213.933V213.933Z" fill="white" stroke="#263238" stroke-width="0.393" stroke-miterlimit="10"/>
<path d="M244.617 216.802C244.69 216.616 244.816 216.455 244.981 216.34C245.145 216.225 245.34 216.162 245.541 216.158C245.741 216.154 245.939 216.209 246.108 216.317C246.277 216.425 246.41 216.581 246.49 216.765C246.57 216.949 246.594 217.153 246.559 217.35C246.524 217.547 246.431 217.73 246.291 217.875C246.152 218.019 245.973 218.119 245.777 218.162C245.581 218.205 245.377 218.188 245.19 218.115C244.94 218.017 244.74 217.823 244.632 217.577C244.524 217.331 244.519 217.053 244.617 216.802V216.802Z" fill="white" stroke="#263238" stroke-width="0.393" stroke-miterlimit="10"/>
<path d="M242.541 217.03C242.634 216.794 242.794 216.591 243.002 216.446C243.21 216.301 243.457 216.221 243.71 216.216C243.964 216.211 244.213 216.282 244.426 216.418C244.64 216.555 244.808 216.752 244.909 216.985C245.01 217.217 245.041 217.474 244.996 217.724C244.951 217.974 244.833 218.204 244.657 218.387C244.48 218.569 244.254 218.695 244.006 218.749C243.759 218.803 243.5 218.782 243.265 218.689C242.949 218.564 242.696 218.32 242.56 218.009C242.425 217.698 242.418 217.346 242.541 217.03V217.03Z" fill="white" stroke="#263238" stroke-width="0.393" stroke-miterlimit="10"/>
<path d="M243.87 215.568C243.936 215.399 244.051 215.254 244.2 215.15C244.349 215.046 244.525 214.989 244.707 214.985C244.889 214.981 245.067 215.031 245.22 215.129C245.373 215.227 245.494 215.367 245.567 215.534C245.641 215.7 245.663 215.884 245.632 216.063C245.601 216.242 245.517 216.407 245.392 216.539C245.267 216.67 245.105 216.762 244.928 216.802C244.751 216.842 244.566 216.828 244.396 216.763C244.283 216.72 244.18 216.654 244.092 216.57C244.004 216.487 243.933 216.386 243.884 216.275C243.835 216.164 243.809 216.045 243.806 215.923C243.804 215.802 243.826 215.681 243.87 215.568V215.568Z" fill="white" stroke="#263238" stroke-width="0.393" stroke-miterlimit="10"/>
<path d="M229.462 214.869C229.51 214.744 229.582 214.631 229.674 214.534C229.766 214.438 229.877 214.361 229.999 214.307C230.121 214.254 230.252 214.225 230.386 214.223C230.519 214.221 230.651 214.246 230.775 214.295C231.014 214.401 231.203 214.595 231.302 214.836C231.401 215.078 231.404 215.349 231.308 215.592C231.213 215.835 231.028 216.032 230.791 216.142C230.554 216.252 230.283 216.266 230.036 216.181C229.786 216.083 229.585 215.89 229.478 215.644C229.37 215.398 229.365 215.119 229.462 214.869V214.869Z" fill="white" stroke="#263238" stroke-width="0.393" stroke-miterlimit="10"/>
<path d="M227.387 215.097C227.478 214.86 227.637 214.655 227.844 214.508C228.051 214.362 228.297 214.28 228.551 214.273C228.805 214.267 229.055 214.335 229.269 214.471C229.484 214.607 229.653 214.803 229.756 215.035C229.859 215.267 229.89 215.525 229.846 215.775C229.803 216.025 229.686 216.256 229.51 216.439C229.335 216.623 229.109 216.75 228.861 216.805C228.613 216.86 228.355 216.84 228.118 216.747C227.962 216.687 227.819 216.597 227.697 216.481C227.575 216.366 227.478 216.227 227.41 216.074C227.342 215.921 227.305 215.755 227.301 215.588C227.297 215.42 227.327 215.253 227.387 215.097V215.097Z" fill="white" stroke="#263238" stroke-width="0.393" stroke-miterlimit="10"/>
<path d="M228.716 213.627C228.805 213.398 228.982 213.213 229.208 213.115C229.434 213.016 229.689 213.011 229.918 213.1C230.148 213.19 230.332 213.367 230.431 213.593C230.53 213.818 230.535 214.074 230.445 214.303C230.355 214.532 230.178 214.717 229.953 214.815C229.727 214.914 229.472 214.919 229.242 214.83C229.013 214.74 228.829 214.563 228.73 214.337C228.631 214.112 228.626 213.856 228.716 213.627V213.627Z" fill="white" stroke="#263238" stroke-width="0.393" stroke-miterlimit="10"/>
<path d="M235.357 217.769C235.357 217.97 235.298 218.166 235.187 218.332C235.075 218.499 234.917 218.629 234.732 218.706C234.546 218.783 234.342 218.803 234.146 218.764C233.949 218.724 233.768 218.628 233.627 218.486C233.485 218.344 233.388 218.164 233.349 217.967C233.31 217.77 233.33 217.566 233.407 217.381C233.484 217.196 233.613 217.037 233.78 216.926C233.947 216.815 234.143 216.755 234.344 216.755C234.477 216.754 234.609 216.78 234.733 216.83C234.856 216.881 234.968 216.955 235.063 217.05C235.157 217.144 235.232 217.256 235.282 217.38C235.333 217.503 235.359 217.636 235.357 217.769Z" fill="white" stroke="#263238" stroke-width="0.393" stroke-miterlimit="10"/>
<path d="M237.236 216.794C237.238 217.049 237.164 217.297 237.023 217.509C236.883 217.721 236.683 217.887 236.449 217.984C236.214 218.082 235.956 218.108 235.707 218.059C235.458 218.01 235.229 217.888 235.049 217.708C234.869 217.529 234.747 217.3 234.698 217.05C234.649 216.801 234.675 216.543 234.773 216.308C234.871 216.074 235.036 215.874 235.248 215.734C235.46 215.594 235.709 215.52 235.963 215.521C236.3 215.523 236.622 215.658 236.861 215.896C237.099 216.135 237.234 216.457 237.236 216.794V216.794Z" fill="white" stroke="#263238" stroke-width="0.393" stroke-miterlimit="10"/>
<path d="M235.578 219.577C236.09 219.577 236.505 219.162 236.505 218.65C236.505 218.137 236.09 217.722 235.578 217.722C235.065 217.722 234.65 218.137 234.65 218.65C234.65 219.162 235.065 219.577 235.578 219.577Z" fill="white" stroke="#263238" stroke-width="0.393" stroke-miterlimit="10"/>
<path d="M226.303 218.429C226.125 218.522 225.924 218.559 225.724 218.537C225.525 218.515 225.337 218.435 225.183 218.306C225.03 218.177 224.918 218.005 224.862 217.812C224.806 217.62 224.808 217.415 224.869 217.224C224.929 217.033 225.045 216.864 225.201 216.738C225.358 216.613 225.548 216.537 225.748 216.519C225.948 216.502 226.148 216.544 226.324 216.641C226.499 216.737 226.643 216.884 226.735 217.062C226.798 217.18 226.836 217.309 226.848 217.442C226.86 217.575 226.846 217.709 226.805 217.836C226.765 217.963 226.7 218.081 226.614 218.183C226.527 218.285 226.422 218.369 226.303 218.429Z" fill="white" stroke="#263238" stroke-width="0.393" stroke-miterlimit="10"/>
<path d="M228.024 219.624C227.874 219.716 227.707 219.777 227.533 219.802C227.359 219.827 227.182 219.816 227.012 219.77C226.843 219.724 226.684 219.643 226.547 219.532C226.41 219.422 226.297 219.285 226.216 219.129C226.134 218.973 226.085 218.802 226.073 218.627C226.06 218.452 226.083 218.275 226.142 218.11C226.2 217.944 226.292 217.791 226.412 217.663C226.531 217.534 226.676 217.431 226.837 217.36C227.134 217.231 227.469 217.218 227.775 217.325C228.081 217.433 228.335 217.652 228.485 217.939C228.636 218.226 228.672 218.56 228.586 218.872C228.501 219.185 228.3 219.454 228.024 219.624V219.624Z" fill="white" stroke="#263238" stroke-width="0.393" stroke-miterlimit="10"/>
<path d="M226.051 219.852C225.889 219.937 225.704 219.972 225.522 219.952C225.339 219.933 225.167 219.859 225.026 219.742C224.885 219.624 224.783 219.467 224.731 219.291C224.68 219.115 224.682 218.927 224.737 218.752C224.792 218.577 224.897 218.422 225.04 218.307C225.184 218.192 225.358 218.122 225.54 218.106C225.723 218.09 225.907 218.129 226.068 218.217C226.228 218.305 226.36 218.44 226.444 218.602C226.501 218.71 226.537 218.828 226.548 218.949C226.559 219.071 226.546 219.193 226.509 219.309C226.473 219.426 226.413 219.534 226.335 219.627C226.256 219.72 226.16 219.797 226.051 219.852V219.852Z" fill="white" stroke="#263238" stroke-width="0.393" stroke-miterlimit="10"/>
<path d="M228.079 216.488C227.901 216.58 227.7 216.618 227.501 216.596C227.301 216.574 227.113 216.493 226.959 216.364C226.806 216.235 226.694 216.064 226.638 215.871C226.582 215.679 226.585 215.474 226.645 215.283C226.706 215.091 226.821 214.922 226.978 214.797C227.134 214.672 227.324 214.595 227.524 214.578C227.724 214.561 227.924 214.603 228.1 214.699C228.276 214.796 228.419 214.942 228.511 215.12C228.573 215.239 228.61 215.368 228.622 215.5C228.634 215.633 228.619 215.767 228.579 215.894C228.539 216.021 228.474 216.139 228.388 216.241C228.302 216.343 228.197 216.427 228.079 216.488V216.488Z" fill="white" stroke="#263238" stroke-width="0.393" stroke-miterlimit="10"/>
<path d="M229.793 217.722C229.492 217.878 229.142 217.909 228.82 217.807C228.497 217.706 228.228 217.48 228.071 217.18C227.915 216.879 227.884 216.529 227.986 216.207C228.088 215.884 228.313 215.615 228.614 215.458C228.762 215.381 228.925 215.333 229.092 215.319C229.259 215.304 229.427 215.323 229.587 215.373C229.746 215.423 229.895 215.505 230.023 215.612C230.152 215.72 230.258 215.852 230.335 216.001C230.412 216.149 230.46 216.312 230.474 216.479C230.489 216.646 230.471 216.814 230.42 216.974C230.37 217.133 230.289 217.282 230.181 217.41C230.073 217.539 229.941 217.645 229.793 217.722Z" fill="white" stroke="#263238" stroke-width="0.393" stroke-miterlimit="10"/>
<path d="M227.804 217.911C227.643 217.993 227.46 218.026 227.28 218.006C227.1 217.985 226.93 217.912 226.792 217.795C226.653 217.678 226.552 217.523 226.502 217.348C226.451 217.174 226.453 216.989 226.507 216.816C226.562 216.643 226.666 216.49 226.807 216.376C226.948 216.263 227.12 216.193 227.301 216.176C227.481 216.16 227.663 216.197 227.822 216.283C227.982 216.369 228.112 216.501 228.197 216.661C228.254 216.769 228.289 216.887 228.301 217.008C228.312 217.129 228.299 217.252 228.262 217.368C228.225 217.484 228.166 217.592 228.088 217.685C228.009 217.778 227.913 217.855 227.804 217.911V217.911Z" fill="white" stroke="#263238" stroke-width="0.393" stroke-miterlimit="10"/>
<path d="M242.259 217.368C242.081 217.461 241.879 217.498 241.68 217.476C241.481 217.454 241.292 217.374 241.139 217.245C240.985 217.116 240.874 216.944 240.818 216.751C240.762 216.559 240.764 216.354 240.825 216.163C240.885 215.972 241.001 215.803 241.157 215.677C241.314 215.552 241.504 215.476 241.703 215.458C241.903 215.441 242.104 215.483 242.279 215.58C242.455 215.676 242.598 215.823 242.691 216.001C242.753 216.119 242.792 216.248 242.804 216.381C242.816 216.514 242.801 216.648 242.761 216.775C242.721 216.902 242.656 217.02 242.57 217.122C242.483 217.224 242.378 217.308 242.259 217.368V217.368Z" fill="white" stroke="#263238" stroke-width="0.393" stroke-miterlimit="10"/>
<path d="M243.98 218.563C243.755 218.681 243.501 218.73 243.248 218.703C242.996 218.676 242.757 218.575 242.562 218.412C242.367 218.25 242.225 218.033 242.154 217.789C242.083 217.545 242.085 217.286 242.162 217.044C242.238 216.802 242.384 216.588 242.582 216.429C242.781 216.271 243.021 216.174 243.274 216.153C243.527 216.131 243.781 216.185 244.003 216.307C244.225 216.43 244.406 216.616 244.522 216.842C244.675 217.142 244.704 217.491 244.603 217.813C244.501 218.135 244.278 218.404 243.98 218.563V218.563Z" fill="white" stroke="#263238" stroke-width="0.393" stroke-miterlimit="10"/>
<path d="M242.015 218.791C241.854 218.875 241.672 218.909 241.491 218.89C241.311 218.871 241.14 218.798 241.001 218.682C240.862 218.566 240.76 218.411 240.708 218.237C240.656 218.063 240.657 217.878 240.711 217.705C240.764 217.531 240.868 217.378 241.008 217.263C241.149 217.148 241.32 217.078 241.501 217.06C241.681 217.043 241.863 217.079 242.023 217.165C242.183 217.25 242.314 217.381 242.4 217.541C242.514 217.758 242.537 218.011 242.465 218.245C242.393 218.48 242.231 218.676 242.015 218.791V218.791Z" fill="white" stroke="#263238" stroke-width="0.393" stroke-miterlimit="10"/>
<path d="M232.457 219.011C232.279 219.103 232.078 219.141 231.879 219.119C231.679 219.097 231.491 219.016 231.337 218.887C231.184 218.758 231.072 218.587 231.016 218.394C230.96 218.202 230.963 217.997 231.023 217.806C231.084 217.614 231.199 217.445 231.356 217.32C231.512 217.195 231.702 217.118 231.902 217.101C232.102 217.084 232.302 217.126 232.478 217.222C232.654 217.319 232.797 217.465 232.889 217.643C232.951 217.761 232.988 217.891 233 218.023C233.012 218.156 232.997 218.29 232.957 218.417C232.917 218.544 232.852 218.662 232.766 218.764C232.68 218.865 232.575 218.95 232.457 219.011V219.011Z" fill="white" stroke="#263238" stroke-width="0.393" stroke-miterlimit="10"/>
<path d="M234.104 220.236C234.745 219.946 235.029 219.192 234.739 218.551C234.449 217.91 233.695 217.626 233.054 217.916C232.414 218.205 232.129 218.96 232.419 219.601C232.709 220.241 233.463 220.526 234.104 220.236Z" fill="white" stroke="#263238" stroke-width="0.393" stroke-miterlimit="10"/>
<path d="M232.206 220.434C231.989 220.533 231.743 220.546 231.518 220.469C231.292 220.392 231.105 220.231 230.995 220.02C230.885 219.809 230.86 219.564 230.926 219.335C230.992 219.106 231.143 218.911 231.349 218.791C231.457 218.727 231.577 218.687 231.702 218.671C231.827 218.655 231.953 218.665 232.074 218.7C232.195 218.735 232.307 218.794 232.404 218.873C232.502 218.953 232.582 219.051 232.64 219.162C232.698 219.274 232.733 219.396 232.742 219.521C232.752 219.646 232.736 219.772 232.695 219.891C232.655 220.01 232.59 220.119 232.506 220.213C232.422 220.306 232.32 220.381 232.206 220.434V220.434Z" fill="white" stroke="#263238" stroke-width="0.393" stroke-miterlimit="10"/>
<path d="M229.376 218.131C229.258 218.192 229.129 218.23 228.996 218.241C228.863 218.253 228.73 218.238 228.603 218.198C228.476 218.158 228.358 218.093 228.256 218.007C228.154 217.922 228.07 217.817 228.008 217.698C227.947 217.58 227.909 217.451 227.898 217.318C227.886 217.186 227.901 217.052 227.941 216.925C227.981 216.798 228.046 216.68 228.132 216.578C228.218 216.476 228.323 216.392 228.441 216.331C228.679 216.207 228.958 216.183 229.214 216.264C229.471 216.345 229.684 216.524 229.808 216.763C229.932 217.002 229.957 217.28 229.875 217.536C229.794 217.793 229.615 218.007 229.376 218.131V218.131Z" fill="white" stroke="#263238" stroke-width="0.393" stroke-miterlimit="10"/>
<path d="M231.089 219.294C230.866 219.41 230.613 219.457 230.363 219.429C230.113 219.401 229.877 219.3 229.684 219.138C229.492 218.976 229.352 218.761 229.281 218.519C229.211 218.278 229.214 218.021 229.289 217.781C229.365 217.541 229.51 217.329 229.706 217.171C229.902 217.013 230.141 216.917 230.391 216.895C230.642 216.873 230.893 216.925 231.114 217.046C231.335 217.166 231.515 217.35 231.632 217.573C231.711 217.721 231.759 217.884 231.775 218.051C231.79 218.218 231.772 218.387 231.721 218.547C231.671 218.707 231.589 218.856 231.481 218.984C231.372 219.112 231.239 219.218 231.089 219.294Z" fill="white" stroke="#263238" stroke-width="0.393" stroke-miterlimit="10"/>
<path d="M229.125 219.553C228.962 219.638 228.778 219.673 228.595 219.654C228.413 219.634 228.24 219.561 228.099 219.443C227.959 219.325 227.856 219.168 227.804 218.992C227.753 218.816 227.755 218.628 227.81 218.453C227.865 218.278 227.971 218.123 228.114 218.008C228.257 217.894 228.431 217.824 228.614 217.808C228.796 217.792 228.98 217.83 229.141 217.918C229.302 218.007 229.433 218.141 229.518 218.304C229.631 218.522 229.653 218.775 229.579 219.01C229.506 219.244 229.342 219.44 229.125 219.553V219.553Z" fill="white" stroke="#263238" stroke-width="0.393" stroke-miterlimit="10"/>
<path d="M231.852 216.582C231.674 216.675 231.473 216.712 231.273 216.69C231.074 216.668 230.886 216.588 230.732 216.459C230.579 216.33 230.467 216.158 230.411 215.965C230.355 215.773 230.357 215.568 230.418 215.377C230.478 215.186 230.594 215.017 230.75 214.891C230.907 214.766 231.097 214.69 231.297 214.672C231.497 214.655 231.697 214.697 231.873 214.794C232.049 214.89 232.192 215.037 232.284 215.215C232.347 215.333 232.385 215.462 232.397 215.595C232.409 215.728 232.395 215.862 232.355 215.989C232.314 216.116 232.249 216.234 232.163 216.336C232.077 216.438 231.971 216.522 231.852 216.582Z" fill="white" stroke="#263238" stroke-width="0.393" stroke-miterlimit="10"/>
<path d="M233.565 217.777C233.342 217.892 233.09 217.938 232.84 217.91C232.591 217.882 232.355 217.78 232.163 217.619C231.971 217.457 231.831 217.242 231.76 217.001C231.69 216.76 231.693 216.503 231.768 216.264C231.843 216.024 231.988 215.812 232.183 215.654C232.378 215.496 232.616 215.4 232.866 215.377C233.116 215.354 233.367 215.405 233.588 215.524C233.809 215.644 233.99 215.826 234.108 216.048C234.186 216.197 234.234 216.36 234.248 216.528C234.263 216.695 234.245 216.864 234.195 217.025C234.144 217.185 234.063 217.334 233.955 217.463C233.847 217.593 233.715 217.699 233.565 217.777Z" fill="white" stroke="#263238" stroke-width="0.393" stroke-miterlimit="10"/>
<path d="M231.6 218.005C231.438 218.09 231.254 218.125 231.071 218.105C230.889 218.086 230.716 218.012 230.575 217.894C230.435 217.777 230.332 217.62 230.28 217.444C230.229 217.267 230.231 217.08 230.286 216.905C230.341 216.73 230.447 216.575 230.59 216.46C230.733 216.345 230.907 216.275 231.09 216.259C231.272 216.243 231.456 216.282 231.617 216.37C231.778 216.458 231.909 216.592 231.993 216.755C232.107 216.973 232.129 217.227 232.055 217.461C231.982 217.696 231.818 217.891 231.6 218.005V218.005Z" fill="white" stroke="#263238" stroke-width="0.393" stroke-miterlimit="10"/>
<path d="M225.863 215.458C225.685 215.551 225.483 215.588 225.284 215.566C225.085 215.544 224.896 215.464 224.743 215.335C224.589 215.206 224.478 215.034 224.422 214.841C224.366 214.649 224.368 214.444 224.428 214.253C224.489 214.062 224.605 213.893 224.761 213.767C224.918 213.642 225.108 213.566 225.308 213.548C225.507 213.531 225.708 213.573 225.883 213.67C226.059 213.766 226.202 213.913 226.295 214.091C226.356 214.209 226.394 214.338 226.405 214.471C226.417 214.603 226.402 214.737 226.362 214.864C226.322 214.991 226.257 215.109 226.171 215.211C226.086 215.313 225.981 215.397 225.863 215.458V215.458Z" fill="white" stroke="#263238" stroke-width="0.393" stroke-miterlimit="10"/>
<path d="M227.507 216.69C228.148 216.4 228.432 215.646 228.142 215.005C227.853 214.365 227.098 214.08 226.457 214.37C225.817 214.66 225.532 215.414 225.822 216.055C226.112 216.696 226.866 216.98 227.507 216.69Z" fill="white" stroke="#263238" stroke-width="0.393" stroke-miterlimit="10"/>
<path d="M225.611 216.881C225.394 216.995 225.141 217.017 224.908 216.944C224.674 216.871 224.479 216.709 224.365 216.492C224.252 216.275 224.229 216.022 224.302 215.788C224.375 215.555 224.538 215.36 224.754 215.246C224.862 215.19 224.979 215.155 225.1 215.144C225.22 215.133 225.342 215.146 225.458 215.183C225.573 215.219 225.681 215.277 225.774 215.355C225.867 215.433 225.944 215.528 226 215.635C226.056 215.742 226.091 215.86 226.102 215.981C226.113 216.101 226.1 216.223 226.064 216.339C226.027 216.454 225.969 216.562 225.891 216.655C225.814 216.748 225.718 216.825 225.611 216.881Z" fill="white" stroke="#263238" stroke-width="0.393" stroke-miterlimit="10"/>
<path d="M238.549 217.022C238.43 217.097 238.297 217.146 238.159 217.166C238.021 217.187 237.88 217.179 237.744 217.142C237.609 217.106 237.483 217.041 237.374 216.954C237.265 216.866 237.176 216.757 237.111 216.633C237.046 216.509 237.008 216.373 236.998 216.233C236.989 216.093 237.008 215.953 237.055 215.822C237.102 215.69 237.176 215.569 237.272 215.468C237.368 215.366 237.485 215.285 237.613 215.23C237.73 215.168 237.858 215.129 237.99 215.116C238.122 215.104 238.256 215.118 238.382 215.157C238.509 215.197 238.626 215.261 238.728 215.347C238.829 215.432 238.913 215.537 238.973 215.655C239.098 215.892 239.123 216.17 239.044 216.426C238.964 216.683 238.786 216.897 238.549 217.022Z" fill="white" stroke="#263238" stroke-width="0.393" stroke-miterlimit="10"/>
<path d="M240.262 218.217C239.962 218.372 239.612 218.402 239.29 218.3C238.967 218.199 238.698 217.974 238.541 217.675C238.411 217.378 238.399 217.043 238.506 216.737C238.613 216.431 238.833 216.177 239.12 216.027C239.407 215.876 239.74 215.84 240.053 215.926C240.365 216.011 240.634 216.212 240.805 216.488C240.96 216.79 240.99 217.14 240.888 217.464C240.787 217.788 240.562 218.058 240.262 218.217V218.217Z" fill="white" stroke="#263238" stroke-width="0.393" stroke-miterlimit="10"/>
<path d="M238.297 218.445C238.134 218.53 237.95 218.565 237.768 218.545C237.585 218.526 237.413 218.452 237.272 218.335C237.131 218.217 237.029 218.06 236.977 217.884C236.926 217.708 236.927 217.52 236.982 217.345C237.038 217.17 237.143 217.015 237.286 216.9C237.429 216.785 237.603 216.715 237.786 216.699C237.969 216.683 238.153 216.722 238.313 216.81C238.474 216.898 238.605 217.033 238.69 217.195C238.803 217.413 238.826 217.667 238.752 217.901C238.678 218.136 238.515 218.331 238.297 218.445V218.445Z" fill="white" stroke="#263238" stroke-width="0.393" stroke-miterlimit="10"/>
<path d="M244.09 237.647H225.132L221.068 217.588H248.154L244.09 237.647Z" fill="white" stroke="#263238" stroke-width="0.786" stroke-miterlimit="10"/>
<path d="M233.943 237.647L247.753 217.588H242.093L228.614 237.647H233.943Z" fill="#263238"/>
<path d="M224.825 236.162L237.425 217.588H230.924L223.442 229.323L224.825 236.162Z" fill="#263238"/>
<path d="M258.82 234.393C258.82 234.393 238.635 233.112 228.952 232.349C219.268 231.587 212.343 228.514 209.302 232.86C206.26 237.207 190.076 290.348 190.076 290.348L188.3 293.964C188.3 293.964 196.985 300.354 198.777 300.354C200.569 300.354 208.209 273.269 212.831 268.411C217.452 263.554 220.73 251.764 220.73 251.764H256.249L258.82 234.393Z" fill="white"/>
<path d="M226.232 238.685C224.974 239.487 223.829 240.455 222.829 241.561C222.829 241.561 220.203 235.8 219.417 237.899C218.631 239.997 220.471 244.446 220.471 244.446C220.471 244.446 216.8 242.615 217.059 244.973C217.223 246.45 217.312 247.935 217.327 249.421C217.327 249.421 212.87 258.853 209.726 266.195C206.582 273.536 197.409 295.009 196.364 298.421C196.287 298.677 196.235 298.94 196.207 299.207C196.986 299.732 197.859 300.106 198.777 300.307C200.561 300.307 208.209 273.221 212.831 268.364C217.452 263.506 220.73 251.764 220.73 251.764H254.764C255.267 250.624 255.652 249.759 255.825 249.406L243.249 235.258C243.249 235.258 228.904 236.782 226.232 238.685Z" fill="#3A6FE5"/>
<g style="mix-blend-mode:multiply" opacity="0.3">
<path d="M226.232 238.685C224.974 239.487 223.829 240.455 222.829 241.561C222.829 241.561 220.203 235.8 219.417 237.899C218.631 239.997 220.471 244.446 220.471 244.446C220.471 244.446 216.8 242.615 217.059 244.973C217.223 246.45 217.312 247.935 217.327 249.421C217.327 249.421 212.87 258.853 209.726 266.195C206.582 273.536 197.409 295.009 196.364 298.421C196.287 298.677 196.235 298.94 196.207 299.207C196.986 299.732 197.859 300.106 198.777 300.307C200.561 300.307 208.209 273.221 212.831 268.364C217.452 263.506 220.73 251.764 220.73 251.764H254.764C255.267 250.624 255.652 249.759 255.825 249.406L243.249 235.258C243.249 235.258 228.904 236.782 226.232 238.685Z" fill="#263238"/>
</g>
<path d="M258.82 234.393C258.82 234.393 238.635 233.112 228.952 232.349C219.268 231.587 212.343 228.514 209.302 232.86C206.26 237.207 190.076 290.348 190.076 290.348L188.3 293.964C188.3 293.964 196.985 300.354 198.777 300.354C200.569 300.354 208.209 273.269 212.831 268.411C217.452 263.554 220.73 251.764 220.73 251.764H256.249L258.82 234.393Z" stroke="#263238" stroke-width="0.786" stroke-miterlimit="10"/>
<path d="M223.56 244.359L220.746 251.764L226.114 246.655" stroke="#263238" stroke-width="0.786" stroke-linecap="round" stroke-linejoin="round"/>
<path d="M188.3 293.964C188.3 293.964 181.147 294.223 179.103 293.964C177.06 293.705 171.943 291.158 170.921 293.178C169.899 295.198 174.246 298.539 177.563 301.093C180.88 303.648 190.854 306.972 193.92 307.483C196.985 307.994 198.777 300.331 198.777 300.331L188.3 293.964Z" fill="#263238" stroke="#263238" stroke-width="0.786" stroke-miterlimit="10"/>
<path d="M196.144 306.375C192.819 305.44 186.421 303.577 182.931 302.107C179.441 300.637 173.782 295.434 171.141 292.856C171.055 292.948 170.981 293.051 170.921 293.162C169.899 295.206 174.246 298.523 177.563 301.077C180.88 303.632 190.854 306.957 193.92 307.467C194.354 307.499 194.789 307.415 195.18 307.223C195.571 307.031 195.904 306.738 196.144 306.375V306.375Z" fill="white" stroke="#263238" stroke-width="0.786" stroke-miterlimit="10"/>
<path d="M287.642 203.731V232.349H251.683C243.626 232.349 237.102 238.355 237.102 245.759C237.102 253.171 243.626 259.176 251.683 259.176H251.934C252.321 259.175 252.703 259.25 253.06 259.397C253.418 259.545 253.742 259.761 254.015 260.034C254.288 260.308 254.505 260.632 254.652 260.989C254.8 261.346 254.875 261.729 254.874 262.115V306.917H323.468V203.731C323.468 194.676 315.53 187.32 305.697 187.225C295.746 187.178 287.642 194.582 287.642 203.731Z" fill="#3A6FE5" stroke="#263238" stroke-width="0.786" stroke-linecap="round" stroke-linejoin="round"/>
<path d="M295.266 231.084V217.612L295.023 210.837C295.023 210.837 294.08 203.763 292.602 200.43C291.879 198.922 290.739 197.654 289.316 196.775C288.218 198.929 287.644 201.313 287.642 203.731V231.084H295.266Z" fill="#263238"/>
<path d="M294.08 203.731V232.349H260.989C257.433 232.349 254.022 233.762 251.507 236.277C248.993 238.792 247.58 242.202 247.58 245.759V245.759C247.579 247.52 247.925 249.265 248.598 250.892C249.272 252.52 250.259 253.999 251.504 255.245C252.75 256.491 254.228 257.48 255.856 258.154C257.483 258.829 259.227 259.176 260.989 259.176C261.375 259.175 261.758 259.25 262.115 259.397C262.472 259.545 262.797 259.761 263.07 260.034C263.343 260.307 263.56 260.632 263.707 260.989C263.854 261.346 263.93 261.729 263.929 262.115V306.917H327.044V203.731C327.045 199.379 325.326 195.203 322.263 192.112C319.2 189.021 315.039 187.265 310.688 187.225V187.225C308.512 187.212 306.354 187.629 304.34 188.452C302.325 189.276 300.494 190.489 298.95 192.023C297.407 193.557 296.182 195.382 295.346 197.391C294.51 199.4 294.079 201.555 294.08 203.731V203.731Z" fill="#3A6FE5" stroke="#263238" stroke-width="0.786" stroke-linecap="round" stroke-linejoin="round"/>
<path opacity="0.3" d="M294.08 203.731V232.349H260.989C257.433 232.349 254.022 233.762 251.507 236.277C248.993 238.792 247.58 242.202 247.58 245.759V245.759C247.579 247.52 247.925 249.265 248.598 250.892C249.272 252.52 250.259 253.999 251.504 255.245C252.75 256.491 254.228 257.48 255.856 258.154C257.483 258.829 259.227 259.176 260.989 259.176C261.375 259.175 261.758 259.25 262.115 259.397C262.472 259.545 262.797 259.761 263.07 260.034C263.343 260.307 263.56 260.632 263.707 260.989C263.854 261.346 263.93 261.729 263.929 262.115V306.917H327.044V203.731C327.045 199.379 325.326 195.203 322.263 192.112C319.2 189.021 315.039 187.265 310.688 187.225V187.225C308.512 187.212 306.354 187.629 304.34 188.452C302.325 189.276 300.494 190.489 298.95 192.023C297.407 193.557 296.182 195.382 295.346 197.391C294.51 199.4 294.079 201.555 294.08 203.731V203.731Z" fill="#263238"/>
<path d="M279.004 204.816L284.184 228.192C284.184 228.192 286.447 233.198 291.431 232.625C296.414 232.051 298.937 225.551 297.404 222.061C295.872 218.571 287.626 195.046 287.626 195.046L281.338 193.474" fill="white"/>
<g style="mix-blend-mode:multiply">
<path d="M284.027 194.441C285.687 195.94 286.887 197.881 287.485 200.037C288.271 203.37 294.685 220.952 294.559 222.957C294.433 224.961 289.489 225.621 289.489 225.621C289.489 225.621 293.168 228.427 293.757 229.748L294.347 231.068C294.347 231.068 297.617 229.347 297.884 226.415C297.942 224.337 297.486 222.277 296.555 220.418L287.634 195.046L284.027 194.441Z" fill="#3A6FE5"/>
</g>
<g style="mix-blend-mode:multiply" opacity="0.3">
<path d="M284.027 194.441C285.687 195.94 286.887 197.881 287.485 200.037C288.271 203.37 294.685 220.952 294.559 222.957C294.433 224.961 289.489 225.621 289.489 225.621C289.489 225.621 293.168 228.427 293.757 229.748L294.347 231.068C294.347 231.068 297.617 229.347 297.884 226.415C297.942 224.337 297.486 222.277 296.555 220.418L287.634 195.046L284.027 194.441Z" fill="#263238"/>
</g>
<path d="M279.004 204.816L284.184 228.192C284.184 228.192 286.447 233.198 291.431 232.625C296.414 232.051 298.937 225.551 297.404 222.061C295.872 218.571 287.626 195.046 287.626 195.046L281.338 193.474" stroke="#263238" stroke-width="0.786" stroke-linecap="round" stroke-linejoin="round"/>
<path d="M294.339 231.084C294.339 231.084 294.496 227.641 290.283 225.912C286.07 224.183 284.522 225.723 281.26 225.912C274.132 226.609 267.047 227.695 260.038 229.166C254.473 230.51 250.488 228.129 248.955 229.85C248.076 230.812 247.364 231.915 246.849 233.112C246.849 233.112 271.726 232.813 280.348 232.428C288.971 232.043 293.38 233.56 294.339 231.084Z" fill="white"/>
<g style="mix-blend-mode:multiply">
<path d="M290.951 226.415C290.951 226.415 291.219 227.201 289.088 228.545C286.958 229.889 256.98 232.656 256.98 232.656H291.47C291.47 232.656 294.85 231.776 294.85 230.982C294.85 230.188 293.081 226.415 290.951 226.415Z" fill="#3A6FE5"/>
</g>
<g style="mix-blend-mode:multiply" opacity="0.3">
<path d="M290.951 226.415C290.951 226.415 291.219 227.201 289.088 228.545C286.958 229.889 256.98 232.656 256.98 232.656H291.47C291.47 232.656 294.85 231.776 294.85 230.982C294.85 230.188 293.081 226.415 290.951 226.415Z" fill="#263238"/>
</g>
<path d="M294.339 231.084C294.339 231.084 294.496 227.641 290.283 225.912C286.07 224.183 284.522 225.723 281.26 225.912C274.132 226.609 267.047 227.695 260.038 229.166C254.473 230.51 250.488 228.129 248.955 229.85C248.076 230.812 247.364 231.915 246.849 233.112C246.849 233.112 271.726 232.813 280.348 232.428C288.971 232.043 293.38 233.56 294.339 231.084Z" stroke="#263238" stroke-width="0.786" stroke-linecap="round" stroke-linejoin="round"/>
<path d="M195.083 214.185C194.98 214.184 194.879 214.162 194.784 214.122C194.6 214.039 194.454 213.888 194.378 213.701C194.302 213.514 194.301 213.304 194.375 213.116L198.368 203.802C198.425 203.674 198.514 203.564 198.628 203.483C198.741 203.401 198.874 203.351 199.013 203.338L206.771 202.678C206.883 202.641 207.003 202.63 207.12 202.646C207.237 202.661 207.35 202.703 207.449 202.769C207.547 202.834 207.63 202.92 207.691 203.022C207.752 203.124 207.788 203.238 207.799 203.356C207.809 203.474 207.793 203.593 207.751 203.704C207.709 203.814 207.642 203.914 207.556 203.996C207.47 204.077 207.367 204.138 207.254 204.174C207.141 204.21 207.022 204.22 206.904 204.203L199.594 204.832L195.79 213.721C195.729 213.858 195.63 213.974 195.504 214.056C195.379 214.138 195.233 214.183 195.083 214.185Z" fill="white" stroke="#263238" stroke-width="0.786" stroke-miterlimit="10"/>
<path d="M197.834 231.964H188.347L186.319 211.906H199.862L197.834 231.964Z" fill="#263238" stroke="#263238" stroke-width="0.786" stroke-miterlimit="10"/>
<path d="M200.302 210.538H185.887V213.423H200.302V210.538Z" fill="white" stroke="#263238" stroke-width="0.786" stroke-miterlimit="10"/>
<path d="M259.535 167.937C259.535 167.937 257.444 180.01 258.144 183.727C258.843 187.445 261.854 190.919 267.89 190.691C273.927 190.464 276.717 183.727 276.717 183.727C276.717 183.727 282.517 183.492 283.217 180.473C283.917 177.455 282.517 175.364 280.898 175.364C279.549 175.476 278.225 175.789 276.968 176.292C276.968 176.292 272.795 174.673 273.038 173.046C273.282 171.419 276.756 168.864 276.057 167.937C275.357 167.009 259.535 167.937 259.535 167.937Z" fill="white"/>
<g style="mix-blend-mode:multiply">
<path d="M283.217 180.473C283.917 177.455 282.517 175.364 280.898 175.364C279.549 175.476 278.225 175.789 276.968 176.292C276.968 176.292 272.795 174.673 273.038 173.046C273.282 171.419 276.756 168.864 276.057 167.937C275.884 167.701 274.712 167.583 273.07 167.544C272.645 168.448 270.209 173.887 271.671 177.762C273.243 182.03 273.007 186.408 271.27 188.16C269.745 189.685 266.255 190.385 265.446 190.518C266.267 190.644 267.099 190.691 267.929 190.66C273.966 190.424 276.756 183.696 276.756 183.696C276.756 183.696 282.517 183.492 283.217 180.473Z" fill="#3A6FE5"/>
</g>
<g style="mix-blend-mode:multiply" opacity="0.3">
<path d="M283.217 180.473C283.917 177.455 282.517 175.364 280.898 175.364C279.549 175.476 278.225 175.789 276.968 176.292C276.968 176.292 272.795 174.673 273.038 173.046C273.282 171.419 276.756 168.864 276.057 167.937C275.884 167.701 274.712 167.583 273.07 167.544C272.645 168.448 270.209 173.887 271.671 177.762C273.243 182.03 273.007 186.408 271.27 188.16C269.745 189.685 266.255 190.385 265.446 190.518C266.267 190.644 267.099 190.691 267.929 190.66C273.966 190.424 276.756 183.696 276.756 183.696C276.756 183.696 282.517 183.492 283.217 180.473Z" fill="#263238"/>
</g>
<path d="M259.535 167.937C259.535 167.937 257.444 180.01 258.144 183.727C258.843 187.445 261.854 190.919 267.89 190.691C273.927 190.464 276.717 183.727 276.717 183.727C276.717 183.727 282.517 183.492 283.217 180.473C283.917 177.455 282.517 175.364 280.898 175.364C279.549 175.476 278.225 175.789 276.968 176.292C276.968 176.292 272.795 174.673 273.038 173.046C273.282 171.419 276.756 168.864 276.057 167.937C275.357 167.009 259.535 167.937 259.535 167.937Z" stroke="#263238" stroke-width="0.786" stroke-linecap="round" stroke-linejoin="round"/>
<path d="M259.771 179.546C259.771 179.546 265.336 182.328 270.445 179.774C270.445 179.774 269.981 185.347 264.644 185.81C259.307 186.274 259.771 179.546 259.771 179.546Z" fill="#263238" stroke="#263238" stroke-width="0.786" stroke-linecap="round" stroke-linejoin="round"/>
<path d="M263.716 173.973L263.481 175.364C263.481 175.364 261.626 176.292 262.317 177.219C262.582 177.498 262.912 177.707 263.276 177.829C263.64 177.951 264.029 177.982 264.408 177.919" stroke="#263238" stroke-width="0.786" stroke-linecap="round" stroke-linejoin="round"/>
<path d="M268.197 173.25C268.197 173.918 267.89 174.468 267.513 174.468C267.135 174.468 266.821 173.918 266.821 173.25C266.821 172.582 267.128 172.024 267.513 172.024C267.898 172.024 268.197 172.574 268.197 173.25Z" fill="#263238"/>
<path d="M261.94 172.613C261.94 173.281 261.626 173.832 261.248 173.832C260.871 173.832 260.557 173.281 260.557 172.613C260.557 171.945 260.871 171.387 261.248 171.387C261.626 171.387 261.94 171.937 261.94 172.613Z" fill="#263238"/>
<path d="M262.026 185.284C262.817 185.742 263.737 185.927 264.644 185.81C265.711 185.75 266.742 185.399 267.626 184.797C268.509 184.195 269.212 183.363 269.659 182.391C265.257 182.195 263.088 183.743 262.026 185.284Z" fill="white" stroke="#263238" stroke-width="0.786" stroke-linecap="round" stroke-linejoin="round"/>
<path d="M266.963 169.328C266.963 169.328 269.721 167.292 270.358 170.468" stroke="#263238" stroke-width="0.786" stroke-linecap="round" stroke-linejoin="round"/>
<path d="M263.056 169.619C263.056 169.619 261.759 167.882 260.604 169.469" stroke="#263238" stroke-width="0.786" stroke-linecap="round" stroke-linejoin="round"/>
<path d="M52.3453 251.379H49.2799L58.3896 242.575H61.455L52.3453 251.379Z" fill="white" stroke="#263238" stroke-width="0.786" stroke-linecap="round" stroke-linejoin="round"/>
<path d="M50.2387 251.379H47.1733L56.2831 242.575H59.3485L50.2387 251.379Z" fill="#263238" stroke="#263238" stroke-width="0.786" stroke-linecap="round" stroke-linejoin="round"/>
<path d="M65.668 251.379H68.7334L59.6236 242.575H56.5582L65.668 251.379Z" fill="white" stroke="#263238" stroke-width="0.786" stroke-linecap="round" stroke-linejoin="round"/>
<path d="M67.7823 251.379H70.8477L61.7379 242.575H58.6725L67.7823 251.379Z" fill="#263238" stroke="#263238" stroke-width="0.786" stroke-linecap="round" stroke-linejoin="round"/>
<path d="M139.733 251.379H136.667L145.777 242.575H148.842L139.733 251.379Z" fill="white" stroke="#263238" stroke-width="0.786" stroke-linecap="round" stroke-linejoin="round"/>
<path d="M137.618 251.379H134.553L143.671 242.575H146.736L137.618 251.379Z" fill="#263238" stroke="#263238" stroke-width="0.786" stroke-linecap="round" stroke-linejoin="round"/>
<path d="M153.055 251.379H156.121L147.011 242.575H143.946L153.055 251.379Z" fill="#263238" stroke="#263238" stroke-width="0.786" stroke-linecap="round" stroke-linejoin="round"/>
<path d="M155.17 251.379H158.235L149.125 242.575H146.06L155.17 251.379Z" fill="white" stroke="#263238" stroke-width="0.786" stroke-linecap="round" stroke-linejoin="round"/>
<path d="M160.821 172.967H52.2666V245.256H160.821V172.967Z" fill="#263238" stroke="#263238" stroke-width="0.786" stroke-linecap="round" stroke-linejoin="round"/>
<path d="M159.029 172.967H50.4745V245.256H159.029V172.967Z" fill="#263238" stroke="#263238" stroke-width="0.786" stroke-linecap="round" stroke-linejoin="round"/>
<path d="M157.253 245.248V172.967H48.6982V173.973L46.3088 179.035V245.248H157.253Z" fill="#263238" stroke="#263238" stroke-width="0.786" stroke-linecap="round" stroke-linejoin="round"/>
<path d="M157.253 245.248V172.967L154.392 179.035V245.248H157.253Z" fill="#263238" stroke="#263238" stroke-width="0.786" stroke-linecap="round" stroke-linejoin="round"/>
<path d="M46.3088 179.035H154.392L157.253 172.967H48.6982L46.3088 179.035Z" fill="white" stroke="#263238" stroke-width="0.786" stroke-linecap="round" stroke-linejoin="round"/>
<path d="M51.347 236.782H146.846" stroke="white" stroke-width="0.786" stroke-linecap="round" stroke-linejoin="round"/>
<path d="M126.41 230.589H71.3114C71.0225 230.565 70.753 230.433 70.5566 230.22C70.3602 230.007 70.2512 229.727 70.2512 229.437C70.2512 229.147 70.3602 228.868 70.5566 228.655C70.753 228.441 71.0225 228.31 71.3114 228.286H126.41C126.699 228.31 126.968 228.441 127.165 228.655C127.361 228.868 127.47 229.147 127.47 229.437C127.47 229.727 127.361 230.007 127.165 230.22C126.968 230.433 126.699 230.565 126.41 230.589V230.589Z" fill="#263238" stroke="white" stroke-width="0.786" stroke-linecap="round" stroke-linejoin="round"/>
<path d="M69.598 210.829V184.631H125.184V212.299" stroke="white" stroke-width="0.786" stroke-linecap="round" stroke-linejoin="round"/>
<path d="M173.381 255.599H36.2401V306.957H173.381V255.599Z" fill="#263238" stroke="#263238" stroke-width="0.786" stroke-linecap="round" stroke-linejoin="round"/>
<path d="M173.374 255.599H123.235V306.957H173.374V255.599Z" fill="#3A6FE5" stroke="#263238" stroke-width="0.786" stroke-linecap="round" stroke-linejoin="round"/>
<g style="mix-blend-mode:multiply" opacity="0.3">
<path d="M173.374 255.599H123.235V306.957H173.374V255.599Z" fill="#263238"/>
</g>
<path d="M176.29 250.616H33.3319V256.362H176.29V250.616Z" fill="#263238" stroke="#263238" stroke-width="0.786" stroke-linecap="round" stroke-linejoin="round"/>
<path d="M173.256 254.153H36.3187V259.899H173.256V254.153Z" fill="#263238" stroke="#263238" stroke-width="0.786" stroke-linecap="round" stroke-linejoin="round"/>
<path d="M176.29 250.616H128.383V256.362H176.29V250.616Z" fill="#3A6FE5" stroke="#263238" stroke-width="0.786" stroke-linecap="round" stroke-linejoin="round"/>
<g style="mix-blend-mode:multiply" opacity="0.3">
<path d="M176.29 250.616H128.383V256.362H176.29V250.616Z" fill="#263238"/>
</g>
</svg>
