<svg width="40" height="40" viewBox="0 0 40 40" fill="none" xmlns="http://www.w3.org/2000/svg">
<circle cx="20" cy="20" r="20" fill="#F0F5FF"/>
<path fill-rule="evenodd" clip-rule="evenodd" d="M28 20C28 22.1217 27.1571 24.1566 25.6569 25.6569C24.1566 27.1571 22.1217 28 20 28C17.8783 28 15.8434 27.1571 14.3431 25.6569C12.8429 24.1566 12 22.1217 12 20C12 17.8783 12.8429 15.8434 14.3431 14.3431C15.8434 12.8429 17.8783 12 20 12C22.1217 12 24.1566 12.8429 25.6569 14.3431C27.1571 15.8434 28 17.8783 28 20ZM20 17C19.8243 16.9998 19.6517 17.046 19.4994 17.1337C19.3472 17.2215 19.2209 17.3478 19.133 17.5C19.0696 17.6179 18.9831 17.7218 18.8788 17.8057C18.7744 17.8895 18.6543 17.9515 18.5255 17.9881C18.3967 18.0247 18.2619 18.035 18.1291 18.0185C17.9963 18.002 17.8681 17.959 17.7522 17.892C17.6363 17.8251 17.535 17.7355 17.4543 17.6287C17.3737 17.5218 17.3153 17.3999 17.2826 17.2701C17.25 17.1403 17.2437 17.0052 17.2642 16.8729C17.2847 16.7407 17.3316 16.6138 17.402 16.5C17.7322 15.9281 18.2419 15.4812 18.852 15.2285C19.4621 14.9758 20.1386 14.9314 20.7765 15.1024C21.4143 15.2733 21.978 15.6499 22.38 16.1738C22.782 16.6977 23 17.3396 23 18C23.0002 18.6206 22.8079 19.226 22.4498 19.7329C22.0916 20.2397 21.5851 20.623 21 20.83V21C21 21.2652 20.8946 21.5196 20.7071 21.7071C20.5196 21.8946 20.2652 22 20 22C19.7348 22 19.4804 21.8946 19.2929 21.7071C19.1054 21.5196 19 21.2652 19 21V20C19 19.7348 19.1054 19.4804 19.2929 19.2929C19.4804 19.1054 19.7348 19 20 19C20.2652 19 20.5196 18.8946 20.7071 18.7071C20.8946 18.5196 21 18.2652 21 18C21 17.7348 20.8946 17.4804 20.7071 17.2929C20.5196 17.1054 20.2652 17 20 17ZM20 25C20.2652 25 20.5196 24.8946 20.7071 24.7071C20.8946 24.5196 21 24.2652 21 24C21 23.7348 20.8946 23.4804 20.7071 23.2929C20.5196 23.1054 20.2652 23 20 23C19.7348 23 19.4804 23.1054 19.2929 23.2929C19.1054 23.4804 19 23.7348 19 24C19 24.2652 19.1054 24.5196 19.2929 24.7071C19.4804 24.8946 19.7348 25 20 25Z" fill="#3784FB"/>
</svg>
