<svg width="302" height="302" viewBox="0 0 302 302" fill="none" xmlns="http://www.w3.org/2000/svg">
<path d="M302 230.97H0V231.121H302V230.97Z" fill="#EBEBEB"/>
<path d="M271.74 240.688H251.735V240.839H271.74V240.688Z" fill="#EBEBEB"/>
<path d="M200.057 242.331H194.808V242.482H200.057V242.331Z" fill="#EBEBEB"/>
<path d="M251.131 235.083H239.54V235.234H251.131V235.083Z" fill="#EBEBEB"/>
<path d="M57.7726 236.098H31.6858V236.249H57.7726V236.098Z" fill="#EBEBEB"/>
<path d="M66.9776 236.098H63.1542V236.249H66.9776V236.098Z" fill="#EBEBEB"/>
<path d="M135.991 238.646H79.4079V238.797H135.991V238.646Z" fill="#EBEBEB"/>
<path d="M143.148 204.031H26.5216C25.608 204.03 24.7323 203.666 24.0868 203.019C23.4414 202.372 23.0788 201.496 23.0788 200.582V36.6386C23.0868 35.7302 23.4528 34.8617 24.0975 34.2216C24.7421 33.5815 25.6132 33.2216 26.5216 33.22H143.148C144.063 33.22 144.94 33.5834 145.587 34.2301C146.233 34.8769 146.597 35.7542 146.597 36.6688V200.582C146.597 201.497 146.233 202.374 145.587 203.021C144.94 203.668 144.063 204.031 143.148 204.031ZM26.5216 33.3408C25.648 33.3424 24.8108 33.6906 24.1936 34.3088C23.5765 34.9271 23.2298 35.765 23.2298 36.6386V200.582C23.2298 201.456 23.5765 202.294 24.1936 202.912C24.8108 203.53 25.648 203.879 26.5216 203.88H143.148C144.022 203.879 144.86 203.531 145.478 202.913C146.096 202.294 146.444 201.456 146.446 200.582V36.6386C146.444 35.7645 146.096 34.9266 145.478 34.3085C144.86 33.6904 144.022 33.3424 143.148 33.3408H26.5216Z" fill="#EBEBEB"/>
<path d="M273.799 204.031H157.167C156.253 204.03 155.376 203.666 154.73 203.019C154.083 202.373 153.72 201.497 153.718 200.582V36.6386C153.728 35.7297 154.095 34.8611 154.74 34.2212C155.386 33.5813 156.258 33.2215 157.167 33.22H273.799C274.707 33.2231 275.576 33.5838 276.22 34.2237C276.863 34.8636 277.228 35.7313 277.236 36.6386V200.582C277.236 201.495 276.874 202.37 276.23 203.017C275.586 203.663 274.712 204.028 273.799 204.031ZM157.167 33.3408C156.293 33.3424 155.455 33.6904 154.837 34.3085C154.219 34.9266 153.871 35.7645 153.869 36.6386V200.582C153.871 201.456 154.219 202.294 154.837 202.913C155.455 203.531 156.293 203.879 157.167 203.88H273.799C274.673 203.879 275.511 203.531 276.129 202.913C276.748 202.294 277.095 201.456 277.097 200.582V36.6386C277.095 35.7645 276.748 34.9266 276.129 34.3085C275.511 33.6904 274.673 33.3424 273.799 33.3408H157.167Z" fill="#EBEBEB"/>
<path d="M141.837 230.97H154.932V155.681H141.837V230.97Z" fill="#E6E6E6"/>
<path d="M146.44 230.97H141.843V220.714H151.266L146.44 230.97Z" fill="#FAFAFA"/>
<path d="M254.314 230.97H267.409V155.681H254.314V230.97Z" fill="#E6E6E6"/>
<path d="M141.837 224.682L258.325 224.682V155.687H141.837V224.682Z" fill="#FAFAFA"/>
<path d="M242.693 178.053H157.481C150.613 178.053 145.026 173.632 145.026 168.202C145.026 162.766 150.613 158.357 157.481 158.357H177.769C180.964 158.33 184.079 159.352 186.636 161.268C187.265 161.755 187.931 162.191 188.629 162.573C190.549 163.634 192.705 164.195 194.899 164.203H205.233C208.279 164.168 211.223 163.104 213.586 161.183C216.117 159.279 219.208 158.27 222.375 158.314H242.675C249.543 158.314 255.136 162.73 255.136 168.16C255.136 173.59 249.561 178.053 242.693 178.053ZM157.481 159.13C151.042 159.13 145.8 163.195 145.8 168.19C145.8 173.191 151.042 177.25 157.481 177.25H242.693C249.132 177.25 254.375 173.179 254.375 168.19C254.375 163.201 249.132 159.13 242.693 159.13H222.393C219.404 159.098 216.487 160.046 214.088 161.83C211.585 163.855 208.471 164.974 205.251 165.007H194.917C192.592 165 190.307 164.406 188.273 163.279C187.541 162.879 186.842 162.421 186.183 161.908C183.76 160.083 180.803 159.106 177.769 159.13H157.481Z" fill="#F0F0F0"/>
<path d="M253.728 230.97H258.331V220.714H248.908L253.728 230.97Z" fill="#FAFAFA"/>
<path d="M242.693 200.033H157.481C150.613 200.033 145.026 195.617 145.026 190.188C145.026 184.752 150.613 180.342 157.481 180.342H177.775C180.983 180.32 184.108 181.356 186.666 183.29C187.292 183.775 187.954 184.211 188.647 184.594C190.567 185.656 192.723 186.217 194.917 186.225H205.251C208.297 186.191 211.241 185.126 213.605 183.205C216.134 181.3 219.226 180.29 222.393 180.336H242.693C249.561 180.336 255.154 184.752 255.154 190.181C255.154 195.611 249.561 200.033 242.693 200.033ZM157.481 181.109C151.042 181.109 145.8 185.18 145.8 190.169C145.8 195.171 151.042 199.229 157.481 199.229H242.693C249.132 199.229 254.375 195.164 254.375 190.169C254.375 185.174 249.132 181.109 242.693 181.109H222.393C219.403 181.076 216.484 182.026 214.088 183.815C211.585 185.84 208.471 186.96 205.251 186.992H194.917C192.593 186.981 190.308 186.387 188.273 185.265C187.545 184.861 186.848 184.403 186.189 183.894C183.766 182.067 180.81 181.088 177.775 181.109H157.481Z" fill="#F0F0F0"/>
<path d="M242.693 222.006H157.481C150.613 222.006 145.026 217.591 145.026 212.161C145.026 206.731 150.613 202.34 157.481 202.34H177.781C180.984 202.318 184.104 203.352 186.66 205.281C187.288 205.766 187.953 206.202 188.647 206.586C190.567 207.647 192.723 208.208 194.917 208.217H205.251C208.297 208.182 211.241 207.117 213.605 205.197C216.134 203.297 219.224 202.292 222.387 202.34H242.693C249.561 202.34 255.154 206.761 255.154 212.191C255.154 217.621 249.561 222.006 242.693 222.006ZM157.481 203.089C151.042 203.089 145.8 207.16 145.8 212.149C145.8 217.138 151.042 221.209 157.481 221.209H242.693C249.132 221.209 254.375 217.144 254.375 212.149C254.375 207.154 249.132 203.089 242.693 203.089H222.387C219.399 203.056 216.484 204.005 214.088 205.789C211.587 207.82 208.473 208.946 205.251 208.984H194.917C192.593 208.973 190.308 208.379 188.273 207.257C187.543 206.853 186.844 206.394 186.183 205.885C183.764 204.061 180.811 203.084 177.781 203.107L157.481 203.089Z" fill="#F0F0F0"/>
<path d="M31.4684 230.97H72.5223V179.134H31.4684L31.4684 230.97Z" fill="#E6E6E6"/>
<path d="M126.484 179.128H72.5223V230.964H126.484V179.128Z" fill="#F0F0F0"/>
<g style="mix-blend-mode:multiply" opacity="0.7">
<path d="M31.4624 174.713H126.478V179.762L31.4624 183.544V174.713Z" fill="#E6E6E6"/>
</g>
<path d="M29.3906 179.128H72.5162V174.163H29.3906V179.128Z" fill="#E6E6E6"/>
<path d="M128.549 174.169H72.5223V179.134H128.549V174.169Z" fill="#F0F0F0"/>
<path d="M40.3774 153.386H102.879L102.879 46.2845L40.3774 46.2845L40.3774 153.386Z" fill="#E6E6E6"/>
<path d="M36.7111 153.386H101.871L101.871 46.2845L36.7111 46.2845L36.7111 153.386Z" fill="#F5F5F5"/>
<path d="M98.9412 150.456V49.22L39.6405 49.22L39.6405 150.456H98.9412Z" fill="white"/>
<path d="M75.988 118.407C86.8511 115.843 93.5789 104.958 91.015 94.0953C88.451 83.2322 77.5663 76.5044 66.7032 79.0683C55.84 81.6322 49.1122 92.517 51.6762 103.38C54.2401 114.243 65.1249 120.971 75.988 118.407Z" fill="#FAFAFA"/>
<path d="M48.32 119.924C51.6118 115.696 55.9123 112.712 59.0954 112.712C61.0886 112.712 62.2784 113.92 62.5925 115.817C64.0602 114.718 65.54 114.065 66.7782 114.065C68.9466 114.065 69.7318 116.095 68.9587 118.952C70.0813 118.349 71.3139 117.98 72.5827 117.865C74.7994 117.732 76.0496 118.897 76.1704 120.794C76.6412 120.495 77.1744 120.309 77.7288 120.25C79.0032 120.172 79.3414 121.35 78.4898 122.872L78.3207 123.156H43.18C43.6994 121.664 46.7375 119.997 48.32 119.924Z" fill="#F0F0F0"/>
<path d="M53.1158 62.8885C55.0184 60.4423 57.5189 58.7028 59.3611 58.7028C59.8699 58.6763 60.3686 58.8519 60.7486 59.1912C61.1287 59.5305 61.3594 60.0062 61.3906 60.5148C62.074 59.9388 62.9168 59.5849 63.8066 59.5C65.0689 59.5 65.5219 60.708 65.075 62.3388C65.7289 61.9955 66.4464 61.7899 67.1829 61.7348C68.4694 61.6563 69.1942 62.3388 69.2607 63.4321C69.5355 63.2613 69.8451 63.154 70.1667 63.118C70.9096 63.0757 71.1029 63.7582 70.6076 64.6401L70.511 64.8032H50.132C50.434 63.8972 52.1977 62.9308 53.1158 62.8885Z" fill="#F5F5F5"/>
<path d="M77.6744 79.577H77.8375C78.6348 78.8039 79.4441 78.3086 80.0179 78.3086C80.4286 78.3086 80.6521 78.5683 80.6944 79.0032C82.1863 77.4992 83.7144 76.5268 84.7895 76.5268C85.6532 76.5268 86.0579 77.1308 85.9975 78.1938C86.5431 77.6837 87.2329 77.3547 87.9726 77.2516C88.9148 77.2516 89.0598 78.3448 88.4498 79.885C88.9601 79.5665 89.5326 79.3606 90.1289 79.281C91.1013 79.2146 91.5302 79.8428 91.3973 80.8635C91.6136 80.7076 91.8643 80.6061 92.1281 80.5676C92.6596 80.5313 92.7321 81.093 92.2852 81.848H74.4128C75.2403 80.7065 76.6657 79.728 77.6744 79.577Z" fill="#F0F0F0"/>
<path d="M66.3434 137.495H66.5366C67.4728 136.589 68.4211 136.009 69.0916 136.009C69.5808 136.009 69.8466 136.311 69.8949 136.824C71.6465 135.054 73.4524 133.907 74.7269 133.907C75.7416 133.907 76.2127 134.656 76.1584 135.876C76.7989 135.272 77.6119 134.884 78.4838 134.764C79.5891 134.764 79.7582 136.051 79.0455 137.857C79.6467 137.488 80.3203 137.253 81.0206 137.168C82.1621 137.084 82.6634 137.821 82.5124 139.023C82.7674 138.842 83.0612 138.724 83.3701 138.678C83.9741 138.636 84.0647 139.282 83.5574 140.182H62.5019C63.4744 138.823 65.1535 137.646 66.3434 137.495Z" fill="#FAFAFA"/>
<path d="M151 258.246C215.678 258.246 268.11 255.185 268.11 251.409C268.11 247.633 215.678 244.572 151 244.572C86.3222 244.572 33.8904 247.633 33.8904 251.409C33.8904 255.185 86.3222 258.246 151 258.246Z" fill="#F5F5F5"/>
<path d="M273.57 124.176H128.447L122.678 40.6915H267.808L273.57 124.176Z" fill="white"/>
<g opacity="0.1">
<path d="M172.684 77.9039H130.663L128.549 47.2388H170.564L172.684 77.9039Z" fill="#407BFF"/>
<path d="M219.065 77.9039H177.051L174.937 47.2388H216.951L219.065 77.9039Z" fill="#407BFF"/>
<path d="M175.136 113.498H133.122L131.008 82.8326H173.022L175.136 113.498Z" fill="#407BFF"/>
<path d="M221.523 113.498H179.509L177.395 82.8326H219.409L221.523 113.498Z" fill="#407BFF"/>
<path d="M265.458 77.9039H223.438L221.324 47.2388H263.338L265.458 77.9039Z" fill="#407BFF"/>
<path d="M267.91 113.498H225.896L223.782 82.8326H265.796L267.91 113.498Z" fill="#407BFF"/>
</g>
<path d="M205.1 65.5461C202.358 61.1792 198.897 61.6684 196.312 62.8583L195.104 71.0787C197.876 77.4086 207.848 69.913 205.1 65.5461Z" fill="#263238"/>
<path d="M187.874 89.6336C187.844 90.1651 187.808 90.5577 187.765 91.0107C187.723 91.4637 187.657 91.8805 187.596 92.3093C187.47 93.173 187.319 94.0247 187.137 94.8763C186.761 96.5989 186.25 98.2892 185.609 99.9318C184.957 101.643 184.095 103.266 183.042 104.764C181.918 106.392 180.481 107.78 178.814 108.847L179.098 108.635C178.708 108.962 178.265 109.219 177.787 109.396C177.354 109.556 176.897 109.644 176.434 109.656C175.739 109.678 175.047 109.567 174.393 109.33C173.45 108.985 172.558 108.514 171.741 107.929C170.367 106.942 169.085 105.832 167.912 104.613C166.764 103.441 165.701 102.233 164.687 100.989C163.672 99.7446 162.718 98.4822 161.806 97.1292C161.611 96.8347 161.53 96.4788 161.58 96.129C161.63 95.7792 161.806 95.4598 162.075 95.2312C162.345 95.0027 162.689 94.881 163.042 94.889C163.395 94.8971 163.733 95.0344 163.992 95.275C165.091 96.3138 166.221 97.389 167.362 98.4037C168.504 99.4184 169.652 100.433 170.823 101.363C171.927 102.276 173.101 103.102 174.333 103.834C174.816 104.123 175.336 104.346 175.879 104.498C176.066 104.54 176.205 104.534 176.145 104.498C175.954 104.498 175.769 104.566 175.625 104.691L175.903 104.474C176.91 103.698 177.764 102.741 178.422 101.653C179.156 100.46 179.764 99.1925 180.234 97.8722C180.723 96.4818 181.115 95.059 181.405 93.614C181.562 92.8831 181.695 92.1462 181.804 91.4094L181.955 90.304C181.997 89.9537 182.046 89.543 182.07 89.2652V89.1927C182.15 88.4476 182.516 87.7627 183.091 87.2817C183.665 86.8006 184.404 86.5606 185.152 86.6122C185.899 86.6638 186.598 87.0028 187.101 87.5582C187.604 88.1136 187.872 88.8423 187.85 89.5913L187.874 89.6336Z" fill="#CF7A64"/>
<path d="M157.747 92.1462L155.88 93.2395C155.751 93.3262 155.645 93.4424 155.57 93.5783C155.495 93.7143 155.454 93.8661 155.449 94.0214C155.444 94.1766 155.476 94.3307 155.543 94.4709C155.61 94.6112 155.709 94.7336 155.832 94.828L156.968 95.8125C157.259 96.0698 157.606 96.2559 157.982 96.3561L162.639 97.6366L164.916 96.4286C164.276 94.1213 160.688 93.0945 160.688 93.0945L158.665 92.1402C158.523 92.065 158.365 92.0262 158.205 92.0272C158.045 92.0283 157.887 92.0692 157.747 92.1462Z" fill="#CE7A63"/>
<path d="M179.611 91.808C179.505 92.6099 179.342 93.4032 179.122 94.1817C179.122 94.1817 183.797 99.0681 187.947 99.1225C188.174 98.8386 188.333 98.5064 188.412 98.1514C188.49 97.7964 188.486 97.4281 188.4 97.0749L179.611 91.808Z" fill="#263238"/>
<path d="M184.075 83.5694C179.907 86.5894 179.962 89.8027 179.007 92.4301C180.886 95.8246 188.472 97.9567 188.472 97.9567C188.472 97.9567 189.898 79.3535 184.075 83.5694Z" fill="#407BFF"/>
<path d="M182.366 87.2357C182.311 95.7703 187.953 102.221 189.01 111.221L210.5 110.701C209.292 101.937 209.594 102.813 211.503 85.8767C211.588 84.903 211.292 83.9341 210.677 83.1745C210.061 82.415 209.175 81.9242 208.205 81.8058C206.586 81.6246 204.581 81.4555 202.515 81.4132C199.036 81.2596 195.549 81.3585 192.084 81.7091C189.855 81.9749 187.494 82.4098 185.694 82.7722C183.616 83.195 182.408 85.0734 182.366 87.2357Z" fill="#407BFF"/>
<path d="M192.948 86.2995C191.74 86.3962 189.928 87.8941 189.028 89.8873C185.875 79.9696 192.078 81.7091 192.078 81.7091L192.948 86.2995Z" fill="white"/>
<path d="M195.515 86.6559C196.723 86.6136 199.447 88.4377 200.347 90.449C209.256 78.8582 202.521 81.389 202.521 81.389L195.515 86.6559Z" fill="white"/>
<path d="M200.329 69.6714C199.996 73.0538 199.942 79.2327 202.509 81.4132C202.509 81.4132 198.843 85.7016 194.307 87.1029C194.138 87.1491 193.96 87.1464 193.793 87.0951C193.627 87.0437 193.478 86.9459 193.365 86.8129C192.755 86.1284 192.32 85.3071 192.096 84.4186C191.872 83.53 191.866 82.6006 192.078 81.7091C195.732 80.7065 195.364 77.9281 194.458 75.3309L200.329 69.6714Z" fill="#CE7A63"/>
<path opacity="0.2" d="M197.937 71.9847L194.488 75.3309C194.703 75.9205 194.871 76.5265 194.989 77.1429C196.397 76.8952 198.209 75.2705 198.215 73.7665C198.227 73.1609 198.133 72.5579 197.937 71.9847Z" fill="black"/>
<path d="M203.27 63.42C202.485 68.9224 202.274 71.272 199.211 73.688C198.182 74.5249 196.95 75.0749 195.64 75.2822C194.329 75.4895 192.987 75.3468 191.75 74.8686C190.513 74.3903 189.424 73.5935 188.594 72.5588C187.763 71.5241 187.221 70.2884 187.023 68.9768C186.213 63.8126 187.627 55.6888 193.298 54.2694C198.97 52.85 204.055 57.9055 203.27 63.42Z" fill="#CE7A63"/>
<path d="M209.842 47.4502C204.877 46.3872 203.246 49.6307 202.684 52.4514L208.422 58.9927C214.964 61.161 217.845 49.1656 209.842 47.4502Z" fill="#263238"/>
<path d="M202.153 51.7809C201.99 49.8662 203.651 49.1898 205.451 49.9689C207.251 50.7481 209.981 53.1943 210.403 56.166C210.826 59.1376 209.534 61.5476 207.891 61.0886C206.248 60.6295 202.153 51.7809 202.153 51.7809Z" fill="#407BFF"/>
<path d="M208.887 56.9149C206.828 50.9414 197.212 46.7134 192.096 52.1494L198.541 56.5767C198.42 59.8987 199.302 63.2207 202.491 65.7152C206.568 68.9345 210.893 62.7194 208.887 56.9149Z" fill="#263238"/>
<path d="M199.574 57.984C193.491 61.1127 186.316 56.2747 186.183 63.8851C183.393 59.1437 184.292 50.893 191.649 50.0354C199.676 49.0992 203.784 55.8217 199.574 57.984Z" fill="#263238"/>
<path d="M200.951 62.4536C198.795 64.0301 199.139 66.8145 199.652 68.2701C199.653 67.509 199.825 66.7579 200.156 66.0728C200.488 65.3877 200.97 64.7864 201.567 64.3139L200.951 62.4536Z" fill="#263238"/>
<path d="M194.977 63.8972C194.941 64.3502 194.669 64.6824 194.373 64.6401C194.077 64.5978 193.866 64.1931 193.902 63.7401C193.938 63.2871 194.204 62.9549 194.506 63.0032C194.808 63.0516 195.013 63.4502 194.977 63.8972Z" fill="#263238"/>
<path d="M189.124 63.0637C189.088 63.5106 188.816 63.8428 188.52 63.8005C188.225 63.7582 188.007 63.3536 188.043 62.9006C188.08 62.4476 188.351 62.1214 188.647 62.1637C188.943 62.206 189.161 62.6107 189.124 63.0637Z" fill="#263238"/>
<path d="M188.78 62.212L187.705 61.7409C187.705 61.7409 188.2 62.665 188.78 62.212Z" fill="#263238"/>
<path d="M191.112 64.1206C190.627 65.089 190.002 65.9805 189.257 66.7662C189.472 66.9647 189.726 67.1157 190.003 67.2094C190.28 67.303 190.573 67.3372 190.864 67.3098L191.112 64.1206Z" fill="#BA4D3C"/>
<path d="M192.398 69.1942C192.14 69.2011 191.881 69.185 191.625 69.1459C191.59 69.14 191.558 69.1214 191.536 69.0935C191.513 69.0656 191.502 69.0306 191.504 68.9949C191.505 68.9773 191.509 68.96 191.517 68.9443C191.525 68.9286 191.536 68.9147 191.55 68.9038C191.564 68.8929 191.58 68.8851 191.597 68.881C191.614 68.8769 191.632 68.8766 191.649 68.8802C192.2 68.9843 192.768 68.9506 193.302 68.782C193.836 68.6133 194.32 68.3151 194.711 67.9138C194.736 67.8891 194.77 67.8752 194.805 67.8752C194.84 67.8752 194.874 67.8891 194.899 67.9138C194.912 67.9257 194.922 67.9401 194.929 67.9562C194.936 67.9723 194.94 67.9898 194.94 68.0074C194.94 68.025 194.936 68.0424 194.929 68.0585C194.922 68.0747 194.912 68.0891 194.899 68.101C194.578 68.4435 194.191 68.717 193.761 68.905C193.331 69.093 192.867 69.1914 192.398 69.1942Z" fill="#263238"/>
<path d="M204.333 66.5004C204.178 66.9995 203.919 67.4603 203.573 67.8526C203.228 68.245 202.803 68.5601 202.328 68.7775C201.047 69.3513 200.111 68.2218 200.22 66.8688C200.317 65.6608 201.102 63.8851 202.503 63.8851C202.814 63.8911 203.119 63.9705 203.394 64.1169C203.669 64.2633 203.905 64.4725 204.083 64.7274C204.262 64.9823 204.377 65.2758 204.421 65.5839C204.464 65.892 204.434 66.2061 204.333 66.5004Z" fill="#CE7A63"/>
<path d="M197.013 61.7832C196.937 61.7802 196.865 61.7477 196.813 61.6926C196.592 61.43 196.314 61.2208 196 61.0807C195.686 60.9406 195.345 60.8731 195.001 60.8832C194.929 60.892 194.856 60.8724 194.797 60.8285C194.739 60.7846 194.699 60.7198 194.687 60.6476C194.679 60.6141 194.679 60.5793 194.685 60.5455C194.692 60.5117 194.706 60.4797 194.726 60.4517C194.746 60.4237 194.772 60.4002 194.801 60.383C194.831 60.3657 194.864 60.3551 194.899 60.3517C195.334 60.3281 195.769 60.4059 196.169 60.5788C196.57 60.7517 196.925 61.0151 197.206 61.3483C197.231 61.3725 197.251 61.4016 197.265 61.4338C197.279 61.4659 197.286 61.5005 197.286 61.5355C197.286 61.5705 197.279 61.6051 197.265 61.6373C197.251 61.6695 197.231 61.6985 197.206 61.7228C197.181 61.7473 197.15 61.7656 197.117 61.7761C197.083 61.7866 197.047 61.789 197.013 61.7832Z" fill="#263238"/>
<path d="M187.929 60.696C187.864 60.6717 187.809 60.6272 187.772 60.5691C187.752 60.5402 187.739 60.5075 187.732 60.4731C187.726 60.4388 187.727 60.4035 187.735 60.3695C187.743 60.3354 187.757 60.3034 187.778 60.2754C187.799 60.2474 187.826 60.224 187.856 60.2067C188.228 60.0005 188.644 59.8858 189.07 59.8721C189.495 59.8585 189.918 59.9463 190.302 60.1282C190.366 60.1607 190.415 60.2165 190.438 60.284C190.462 60.3515 190.459 60.4255 190.429 60.4906C190.414 60.5221 190.392 60.5501 190.366 60.5729C190.339 60.5957 190.308 60.6127 190.275 60.6229C190.241 60.6331 190.206 60.6363 190.171 60.6322C190.137 60.6282 190.103 60.617 190.073 60.5993C189.767 60.4586 189.433 60.3924 189.097 60.406C188.761 60.4197 188.433 60.5128 188.14 60.6778C188.108 60.6956 188.073 60.7064 188.036 60.7095C188 60.7126 187.963 60.708 187.929 60.696Z" fill="#263238"/>
<path d="M194.627 63.0455L193.558 62.5744C193.558 62.5744 194.053 63.5046 194.627 63.0455Z" fill="#263238"/>
<path d="M215.858 121.108H186.262C189.282 118.559 188.273 114.186 189.004 111.221L210.494 110.701C213.979 113.153 214.698 116.663 215.858 121.108Z" fill="#263238"/>
<path d="M211.479 84.6808C212.584 86.2633 213.496 87.7974 214.426 89.398C215.356 90.9986 216.184 92.6355 216.957 94.3206C217.746 96.0205 218.436 97.765 219.022 99.5452C219.643 101.392 220.08 103.296 220.327 105.229V105.416C220.348 105.57 220.348 105.727 220.327 105.881C219.988 107.791 219.393 109.646 218.557 111.396C218.155 112.241 217.724 113.059 217.265 113.848C216.787 114.645 216.269 115.417 215.713 116.161C215.508 116.43 215.216 116.619 214.887 116.696C214.558 116.773 214.212 116.733 213.909 116.583C213.606 116.433 213.365 116.182 213.227 115.874C213.089 115.566 213.062 115.219 213.152 114.893V114.808C213.363 114.029 213.617 113.196 213.822 112.392C214.027 111.589 214.239 110.774 214.426 109.976C214.613 109.179 214.746 108.376 214.879 107.603C214.995 106.852 215.071 106.096 215.109 105.338V105.99C214.793 104.422 214.342 102.884 213.762 101.393C213.158 99.8533 212.481 98.3191 211.732 96.8031C210.983 95.287 210.168 93.7831 209.316 92.3093C208.465 90.8355 207.546 89.3437 206.671 87.9847L206.634 87.9243C206.422 87.607 206.275 87.251 206.2 86.8767C206.125 86.5024 206.125 86.117 206.2 85.7427C206.274 85.3683 206.421 85.0122 206.633 84.6948C206.845 84.3773 207.117 84.1047 207.435 83.8926C207.752 83.6804 208.108 83.5328 208.482 83.4582C208.857 83.3836 209.242 83.3834 209.616 83.4577C209.991 83.532 210.347 83.6794 210.664 83.8913C210.982 84.1032 211.254 84.3756 211.466 84.6929L211.479 84.6808Z" fill="#CF7A64"/>
<path d="M214.033 86.6257C214.503 87.3322 215.018 88.0081 215.574 88.6491C215.574 88.6491 213.508 94.6891 209.703 96.1085C209.366 95.9306 209.072 95.6837 208.837 95.3839C208.603 95.0842 208.435 94.7383 208.344 94.369L214.033 86.6257Z" fill="#263238"/>
<path d="M207.939 81.7574C212.028 82.289 213.375 84.6929 214.77 87.278C213.496 90.7329 208.308 96.0722 208.308 96.0722C208.308 96.0722 200.528 80.7971 207.939 81.7574Z" fill="#407BFF"/>
<path d="M214.112 113.178L209.884 114.386C208.889 114.662 208.039 115.311 207.51 116.198L207.033 117.001C206.908 117.223 206.865 117.481 206.91 117.731C206.955 117.981 207.086 118.208 207.281 118.372L209.383 120.226C209.624 120.453 209.942 120.58 210.274 120.58C210.605 120.58 210.923 120.453 211.164 120.226L213.309 118.1C213.309 118.1 216.455 116.469 216.359 114.12L214.112 113.178Z" fill="#CE7A63"/>
<path d="M164.832 96.2836C164.427 93.765 161.812 92.1704 160.706 90.8476C160.655 90.8008 160.592 90.7678 160.525 90.7517C160.457 90.7356 160.386 90.737 160.319 90.7557C160.252 90.7744 160.191 90.8099 160.141 90.8587C160.092 90.9075 160.056 90.9681 160.036 91.0349C159.903 91.5483 160.724 92.5388 161.087 92.7502C161.117 93.2214 161.02 95.7702 162.899 96.332C163.684 96.3561 164.832 96.2836 164.832 96.2836Z" fill="#CE7A63"/>
<path d="M210.705 109.397C210.874 109.799 211.008 110.215 211.104 110.641C211.116 110.683 211.118 110.728 211.111 110.772C211.104 110.815 211.087 110.857 211.062 110.893C211.038 110.93 211.006 110.961 210.968 110.984C210.93 111.007 210.888 111.022 210.844 111.027C208.561 111.323 195.189 112.948 189.01 111.915C188.931 111.903 188.86 111.865 188.806 111.807C188.752 111.749 188.72 111.674 188.714 111.595C188.671 111.215 188.593 110.623 188.545 110.242C188.537 110.198 188.538 110.153 188.55 110.11C188.561 110.067 188.582 110.027 188.611 109.992C188.64 109.958 188.676 109.931 188.717 109.913C188.758 109.894 188.802 109.885 188.847 109.886C190.967 109.886 202.135 109.759 210.361 109.191C210.433 109.185 210.504 109.202 210.566 109.239C210.628 109.275 210.677 109.331 210.705 109.397Z" fill="#407BFF"/>
<path opacity="0.4" d="M210.705 109.397C210.874 109.799 211.008 110.215 211.104 110.641C211.116 110.683 211.118 110.728 211.111 110.772C211.104 110.815 211.087 110.857 211.062 110.893C211.038 110.93 211.006 110.961 210.968 110.984C210.93 111.007 210.888 111.022 210.844 111.027C208.561 111.323 195.189 112.948 189.01 111.915C188.931 111.903 188.86 111.865 188.806 111.807C188.752 111.749 188.72 111.674 188.714 111.595C188.671 111.215 188.593 110.623 188.545 110.242C188.537 110.198 188.538 110.153 188.55 110.11C188.561 110.067 188.582 110.027 188.611 109.992C188.64 109.958 188.676 109.931 188.717 109.913C188.758 109.894 188.802 109.885 188.847 109.886C190.967 109.886 202.135 109.759 210.361 109.191C210.433 109.185 210.504 109.202 210.566 109.239C210.628 109.275 210.677 109.331 210.705 109.397Z" fill="white"/>
<path d="M198.311 109.39C196.765 109.269 195.21 109.351 193.685 109.632C193.365 109.825 193.685 112.314 193.987 112.465C194.591 112.773 197.937 112.604 198.535 112.429C199.133 112.253 198.746 109.523 198.311 109.39Z" fill="white"/>
<path d="M273.57 124.176H128.447L127.885 116.101H273.014L273.57 124.176Z" fill="#407BFF"/>
<path d="M260.203 54.209H237.499L236.563 40.6915H259.267L260.203 54.209Z" fill="#407BFF"/>
<path d="M239.498 46.2845H241.099L241.364 50.1803H243.859L243.95 51.4548H239.854L239.498 46.2845Z" fill="white"/>
<path d="M244.384 46.2845H245.985L246.341 51.4548H244.741L244.384 46.2845Z" fill="white"/>
<path d="M246.619 46.2845H248.292L249.712 50.0052L250.606 46.2845H252.224L250.66 51.4548H248.927L246.619 46.2845Z" fill="white"/>
<path d="M252.744 46.2845H257.026L257.105 47.3898H254.423L254.483 48.2113H256.966L257.038 49.2683H254.556L254.622 50.283H257.383L257.461 51.4548H253.076L252.744 46.2845Z" fill="white"/>
<path d="M275.188 125.686H127.033L121.066 39.1815H269.215L275.188 125.686ZM129.854 122.666H271.951L266.394 42.2015H124.297L129.854 122.666Z" fill="#263238"/>
<path d="M269.124 124.092C269.117 124.025 269.125 123.957 269.146 123.894C269.167 123.83 269.202 123.772 269.248 123.722C269.294 123.673 269.349 123.634 269.411 123.608C269.473 123.583 269.54 123.57 269.607 123.572C269.748 123.575 269.883 123.629 269.985 123.725C270.088 123.821 270.151 123.952 270.163 124.092C270.169 124.158 270.161 124.226 270.139 124.289C270.118 124.352 270.083 124.41 270.037 124.459C269.992 124.508 269.936 124.547 269.875 124.573C269.813 124.599 269.747 124.612 269.68 124.611C269.539 124.61 269.404 124.556 269.301 124.46C269.198 124.364 269.135 124.232 269.124 124.092Z" fill="#407BFF"/>
<path d="M265.802 124.092C265.795 124.025 265.803 123.957 265.824 123.894C265.845 123.83 265.88 123.772 265.926 123.722C265.972 123.673 266.027 123.634 266.089 123.608C266.151 123.583 266.218 123.57 266.285 123.572C266.426 123.575 266.561 123.629 266.663 123.725C266.766 123.821 266.829 123.952 266.841 124.092C266.847 124.158 266.839 124.226 266.817 124.289C266.796 124.352 266.761 124.41 266.715 124.459C266.67 124.508 266.614 124.547 266.553 124.573C266.491 124.599 266.425 124.612 266.358 124.611C266.217 124.61 266.082 124.556 265.979 124.46C265.876 124.364 265.813 124.232 265.802 124.092Z" fill="white"/>
<path d="M90.1228 189.976L88.6974 188.919C88.435 188.722 88.1291 188.59 87.8054 188.536C87.4818 188.481 87.1497 188.505 86.8371 188.605L83.8714 189.553C83.2866 189.742 82.7552 190.067 82.3213 190.502C81.8875 190.936 81.5637 191.469 81.3769 192.054L81.1474 192.791C83.3822 194.712 87.1874 195.134 87.1874 195.134L88.2686 195.382C88.4883 195.437 88.7167 195.448 88.9408 195.415C89.1649 195.382 89.3801 195.304 89.5743 195.188C89.7684 195.071 89.9376 194.917 90.0722 194.735C90.2067 194.553 90.304 194.346 90.3584 194.126L90.8658 191.994C90.95 191.621 90.9247 191.233 90.7928 190.875C90.661 190.517 90.4283 190.205 90.1228 189.976Z" fill="#FFC3BD"/>
<path d="M82.4641 171.361L81.9507 172.158L81.4132 173.022C81.0628 173.626 80.7246 174.194 80.3864 174.792C79.722 176 79.0998 177.208 78.52 178.416C77.9402 179.624 77.4147 180.904 76.9436 182.172C76.4742 183.429 76.0709 184.709 75.7356 186.008L75.7839 185.452C75.751 185.573 75.751 185.7 75.7839 185.821C75.8619 186.047 75.9898 186.254 76.1584 186.425C76.7095 186.997 77.35 187.477 78.0549 187.844C78.8826 188.308 79.7425 188.711 80.628 189.052C81.5279 189.426 82.5124 189.747 83.4124 190.037L83.503 190.067C83.8287 190.174 84.106 190.392 84.2856 190.684C84.4652 190.976 84.5355 191.323 84.4841 191.661C84.4327 192 84.2629 192.31 84.0047 192.536C83.7466 192.761 83.4169 192.888 83.0742 192.893C81.955 192.902 80.8366 192.829 79.728 192.676C78.5804 192.515 77.4502 192.248 76.3516 191.879C75.1012 191.476 73.9332 190.852 72.9028 190.037C72.2776 189.529 71.7462 188.915 71.3324 188.225C70.8672 187.419 70.602 186.514 70.5593 185.585C70.5439 185.44 70.5439 185.295 70.5593 185.15V185.029C70.8164 183.488 71.1715 181.965 71.6223 180.469C72.0638 178.988 72.5922 177.534 73.2048 176.114C73.8088 174.695 74.4732 173.318 75.204 171.971C75.5785 171.306 75.959 170.642 76.3637 169.984C76.7684 169.325 77.167 168.709 77.6804 167.997C78.1155 167.37 78.7801 166.94 79.5301 166.8C80.2801 166.66 81.055 166.821 81.6868 167.249C82.3187 167.676 82.7565 168.336 82.9054 169.084C83.0543 169.832 82.9023 170.609 82.4822 171.246L82.4641 171.361Z" fill="#FFC3BD"/>
<path d="M84.0949 162.059C85.8646 165.55 86.0156 170.026 81.546 177.129C78.3569 177.655 72.184 173.819 72.184 173.819C72.184 173.819 75.645 162.156 84.0949 162.059Z" fill="#407BFF"/>
<path d="M86.0881 149.466C87.2176 152.884 88.7216 159.166 86.6015 161.606C86.6015 161.606 89.8571 160.93 97.0688 164.856C98.9231 161.836 97.3708 161.008 97.3708 161.008C93.3844 160.302 93.1126 157.445 93.4328 154.721L86.0881 149.466Z" fill="#FFC3BD"/>
<path d="M88.0451 162.349C88.039 162.673 87.9368 162.988 87.7514 163.254C87.566 163.52 87.3058 163.725 87.0038 163.843C86.7018 163.961 86.3716 163.987 86.055 163.917C85.7384 163.847 85.4498 163.684 85.2257 163.45C85.0016 163.216 84.8521 162.92 84.7962 162.601C84.7403 162.281 84.7805 161.952 84.9117 161.656C85.0429 161.36 85.2592 161.109 85.5332 160.935C85.8071 160.762 86.1264 160.674 86.4505 160.682C86.8825 160.693 87.2927 160.875 87.5914 161.187C87.8901 161.499 88.0532 161.917 88.0451 162.349Z" fill="#263238"/>
<path d="M90.0987 162.12C90.0914 162.444 89.9882 162.758 89.8021 163.023C89.616 163.288 89.3554 163.492 89.0533 163.609C88.7512 163.726 88.4212 163.751 88.1051 163.68C87.7889 163.61 87.5009 163.447 87.2774 163.212C87.0539 162.978 86.905 162.682 86.8496 162.363C86.7941 162.044 86.8347 161.715 86.966 161.419C87.0974 161.123 87.3136 160.873 87.5874 160.699C87.8613 160.526 88.1803 160.438 88.5041 160.447C88.7188 160.451 88.9305 160.498 89.1269 160.585C89.3234 160.672 89.5008 160.796 89.649 160.952C89.7971 161.107 89.9131 161.29 89.9903 161.491C90.0675 161.691 90.1043 161.905 90.0987 162.12Z" fill="#263238"/>
<path d="M92.3335 162.053C92.3059 162.376 92.1831 162.683 91.9808 162.936C91.7784 163.189 91.5055 163.377 91.1966 163.474C90.8877 163.572 90.5568 163.576 90.2457 163.486C89.9346 163.395 89.6573 163.215 89.449 162.966C89.2407 162.718 89.1107 162.414 89.0754 162.092C89.0402 161.77 89.1014 161.445 89.2511 161.157C89.4009 160.87 89.6325 160.634 89.9168 160.478C90.201 160.322 90.5249 160.255 90.8476 160.283C91.0616 160.302 91.2698 160.362 91.4603 160.461C91.6509 160.56 91.82 160.695 91.9581 160.86C92.0961 161.024 92.2004 161.214 92.2648 161.419C92.3292 161.624 92.3525 161.839 92.3335 162.053Z" fill="#263238"/>
<path d="M94.4052 161.944C94.3789 162.267 94.2574 162.575 94.0559 162.829C93.8545 163.083 93.5823 163.271 93.2738 163.37C92.9652 163.469 92.6343 163.474 92.3228 163.385C92.0113 163.296 91.7333 163.116 91.5241 162.869C91.3148 162.621 91.1837 162.317 91.1473 161.996C91.1109 161.674 91.1709 161.348 91.3196 161.06C91.4684 160.772 91.6993 160.535 91.983 160.379C92.2667 160.222 92.5905 160.153 92.9133 160.181C93.3447 160.218 93.7439 160.424 94.0235 160.755C94.3031 161.085 94.4403 161.513 94.4052 161.944Z" fill="#263238"/>
<path d="M96.3984 162.15C96.3381 162.466 96.1854 162.758 95.9596 162.988C95.7337 163.218 95.4449 163.375 95.1295 163.441C94.8141 163.507 94.4862 163.478 94.1873 163.357C93.8884 163.237 93.6319 163.031 93.4501 162.765C93.2683 162.499 93.1693 162.185 93.1657 161.863C93.1621 161.541 93.254 161.225 93.4299 160.955C93.6057 160.685 93.8576 160.473 94.1537 160.346C94.4499 160.219 94.777 160.182 95.0938 160.241C95.305 160.28 95.5064 160.361 95.6864 160.478C95.8664 160.595 96.0215 160.747 96.1427 160.924C96.264 161.102 96.349 161.301 96.3928 161.512C96.4367 161.722 96.4386 161.939 96.3984 162.15Z" fill="#263238"/>
<path d="M98.452 162.253C98.3926 162.571 98.24 162.865 98.0136 163.096C97.7872 163.328 97.4972 163.487 97.1802 163.554C96.8632 163.621 96.5336 163.592 96.233 163.471C95.9324 163.35 95.6744 163.143 95.4916 162.876C95.3089 162.608 95.2095 162.293 95.2062 161.969C95.2029 161.645 95.2958 161.327 95.473 161.056C95.6503 160.785 95.904 160.573 96.2021 160.446C96.5001 160.319 96.8291 160.284 97.1474 160.344C97.5732 160.424 97.9497 160.671 98.1943 161.028C98.4388 161.386 98.5315 161.826 98.452 162.253Z" fill="#263238"/>
<path d="M96.6702 141.831C96.8212 142.284 97.1836 142.592 97.4796 142.514C97.7755 142.435 97.8903 142.006 97.7332 141.553C97.5762 141.1 97.2198 140.792 96.9299 140.871C96.64 140.949 96.5192 141.372 96.6702 141.831Z" fill="#263238"/>
<path d="M96.8031 140.925L97.7816 140.321C97.7816 140.321 97.5098 141.336 96.8031 140.925Z" fill="#263238"/>
<path d="M96.9299 142.689C97.6793 143.626 98.5461 144.462 99.509 145.177C99.329 145.403 99.1001 145.585 98.8396 145.71C98.5791 145.834 98.2938 145.898 98.005 145.896L96.9299 142.689Z" fill="#ED847E"/>
<path d="M96.7729 137.972C96.7863 137.94 96.7933 137.906 96.7933 137.872C96.7933 137.838 96.7863 137.804 96.7729 137.772C96.7563 137.74 96.7334 137.711 96.7056 137.687C96.6777 137.663 96.6455 137.646 96.6107 137.634C96.5759 137.623 96.5393 137.619 96.5028 137.622C96.4664 137.625 96.4309 137.635 96.3984 137.652C95.9847 137.829 95.6171 138.098 95.3239 138.439C95.0307 138.781 94.8197 139.185 94.7072 139.621C94.7012 139.656 94.7025 139.692 94.711 139.726C94.7195 139.761 94.7349 139.793 94.7564 139.821C94.778 139.85 94.8051 139.873 94.8361 139.891C94.8671 139.908 94.9013 139.919 94.9367 139.923C95.0121 139.93 95.0877 139.91 95.149 139.865C95.2103 139.821 95.253 139.755 95.2689 139.681C95.3624 139.335 95.5348 139.015 95.7727 138.747C96.0106 138.478 96.3075 138.269 96.64 138.135C96.7017 138.097 96.7486 138.04 96.7729 137.972Z" fill="#263238"/>
<path d="M81.232 144.03C83.2735 149.357 84.0224 151.646 87.6464 153.694C93.0824 156.817 99.2251 153.525 98.8265 147.793C98.4641 142.629 95.2025 134.789 89.1625 133.997C87.8746 133.785 86.5533 133.922 85.336 134.393C84.1188 134.864 83.0499 135.652 82.2404 136.676C81.431 137.7 80.9105 138.922 80.7332 140.216C80.5559 141.509 80.7281 142.826 81.232 144.03Z" fill="#FFC3BD"/>
<path d="M91.5362 135.622C93.2999 131.394 87.586 129.449 81.9145 131.781C76.2429 134.112 73.1263 139.5 76.4362 144.284C79.7461 149.067 83.1346 158.453 76.261 157.197C81.7514 162.579 93.9764 160.277 96.936 154.364C99.8956 148.451 94.52 143.909 94.52 143.909C94.52 143.909 96.2957 138.769 91.5362 135.622Z" fill="#263238"/>
<path d="M88.9571 137.344C92.261 138.05 95.9212 136.419 95.3172 133.254C94.7616 130.331 87.5679 127.988 83.0802 129.981C78.0428 132.222 82.295 135.9 88.9571 137.344Z" fill="#263238"/>
<path d="M76.2369 143.988C77.9643 146.832 82.1561 156.273 77.2154 155.747C79.4502 156.611 81.3588 155.53 80.7065 150.734C80.5234 149.344 80.0257 148.014 79.2512 146.844C78.4767 145.675 77.4458 144.698 76.2369 143.988Z" fill="#263238"/>
<path d="M93.2516 145.709C93.5846 146.141 94.0044 146.499 94.4839 146.759C94.9635 147.019 95.4922 147.176 96.036 147.219C97.389 147.267 97.6064 145.685 96.8514 144.326C96.1749 143.118 94.6528 141.596 93.4871 142.194C92.3214 142.792 92.3214 144.573 93.2516 145.709Z" fill="#FFC3BD"/>
<path d="M108.436 169.241C108.767 172.855 108.916 176.484 108.883 180.113C108.925 182.577 108.925 185.029 108.883 187.916C108.844 190.449 107.848 192.873 106.094 194.701C104.34 196.529 101.959 197.624 99.4305 197.768L94.6891 198.033C92.2215 198.174 89.7892 197.396 87.8617 195.849C85.9342 194.302 84.6482 192.096 84.252 189.656C83.4366 184.613 81.7816 178.343 78.7314 169.482C78.436 168.71 78.3172 167.882 78.3837 167.058C78.4501 166.234 78.7002 165.435 79.1154 164.721C79.5307 164.006 80.1007 163.393 80.7836 162.928C81.4666 162.462 82.2451 162.155 83.0621 162.029C83.9922 161.884 84.9888 161.745 86.0096 161.642C89.5804 161.185 93.1793 160.983 96.7789 161.038C97.9869 161.081 99.1949 161.159 100.349 161.256C102.413 161.445 104.347 162.344 105.822 163.8C107.297 165.256 108.221 167.179 108.436 169.241Z" fill="#407BFF"/>
<path d="M130.851 189.511L129.812 188.074C129.618 187.808 129.365 187.593 129.072 187.445C128.779 187.296 128.455 187.22 128.127 187.222L125.028 187.24C124.414 187.243 123.811 187.393 123.267 187.678C122.724 187.962 122.257 188.374 121.905 188.877L121.458 189.481C123.023 191.981 126.55 193.534 126.55 193.534L127.504 194.083C127.697 194.204 127.912 194.285 128.137 194.321C128.361 194.357 128.591 194.349 128.812 194.295C129.033 194.242 129.241 194.145 129.424 194.01C129.607 193.875 129.762 193.705 129.878 193.51L131.002 191.631C131.18 191.3 131.26 190.924 131.233 190.549C131.207 190.174 131.074 189.814 130.851 189.511Z" fill="#FFC3BD"/>
<path d="M108.442 169.935L108.907 171.59C109.076 172.194 109.252 172.738 109.445 173.312C109.815 174.459 110.206 175.603 110.617 176.742C111.033 177.884 111.462 179.02 111.921 180.143C112.38 181.266 112.857 182.384 113.359 183.495L113.051 183.03C113.545 183.638 114.163 184.134 114.863 184.486C115.757 184.962 116.688 185.366 117.647 185.694C118.644 186.056 119.689 186.37 120.758 186.66C121.827 186.95 122.932 187.216 123.977 187.451H124.043C124.381 187.53 124.678 187.728 124.883 188.007C125.087 188.287 125.185 188.63 125.158 188.976C125.131 189.321 124.981 189.645 124.736 189.89C124.49 190.134 124.165 190.283 123.82 190.308C122.613 190.377 121.403 190.377 120.196 190.308C118.98 190.241 117.77 190.098 116.572 189.879C115.298 189.655 114.049 189.303 112.845 188.828C111.403 188.288 110.107 187.42 109.058 186.292C108.985 186.208 108.92 186.117 108.865 186.02L108.756 185.827C107.464 183.545 106.316 181.185 105.319 178.76C104.812 177.552 104.365 176.314 103.948 175.063C103.743 174.459 103.55 173.807 103.344 173.167C103.139 172.527 102.994 171.917 102.825 171.168C102.636 170.422 102.751 169.632 103.144 168.971C103.538 168.31 104.178 167.832 104.924 167.643C105.67 167.454 106.46 167.569 107.121 167.963C107.782 168.356 108.259 168.996 108.448 169.742L108.442 169.935Z" fill="#FFC3BD"/>
<path d="M102.221 161.63C105.996 162.651 109.415 165.544 111.686 173.62C109.94 176.344 102.952 178.349 102.952 178.349C102.952 178.349 96.64 167.96 102.221 161.63Z" fill="#407BFF"/>
<path d="M139.367 161.455C138.85 160.419 137.999 159.587 136.951 159.094C136.57 158.064 136.559 156.935 136.921 155.898L125.028 151.894C125.934 155.868 126.641 159.009 125.137 160.906C127.468 162.379 131.744 165.031 136.45 164.971C141.155 164.91 140.128 163.128 139.367 161.455Z" fill="#FFB573"/>
<path d="M136.033 144.193L137.241 147.932C137.241 147.932 138.769 147.799 139.403 146.887C138.543 145.702 137.378 144.771 136.033 144.193Z" fill="#ED893E"/>
<path d="M135.809 143.752C135.997 144.181 136.377 144.422 136.655 144.296C136.933 144.169 137.005 143.692 136.812 143.293C136.619 142.894 136.244 142.623 135.966 142.749C135.689 142.876 135.616 143.299 135.809 143.752Z" fill="#263238"/>
<path d="M135.199 140.629C135.16 140.65 135.117 140.661 135.073 140.661C135.028 140.661 134.985 140.65 134.946 140.629C134.634 140.484 134.292 140.416 133.948 140.43C133.604 140.445 133.269 140.542 132.971 140.714C132.91 140.754 132.835 140.768 132.764 140.753C132.693 140.739 132.63 140.696 132.59 140.635C132.55 140.574 132.536 140.5 132.551 140.429C132.565 140.357 132.608 140.295 132.669 140.255C133.041 140.032 133.463 139.904 133.896 139.881C134.33 139.858 134.763 139.941 135.157 140.122C135.191 140.135 135.221 140.155 135.247 140.18C135.272 140.206 135.292 140.236 135.306 140.269C135.319 140.302 135.326 140.338 135.325 140.374C135.325 140.41 135.317 140.446 135.302 140.478C135.284 140.538 135.248 140.591 135.199 140.629Z" fill="#263238"/>
<path d="M120.709 148.681C123.379 153.766 125.294 157.137 129.322 158.012C137.319 159.704 139.663 155.228 138.57 149.43C137.579 144.217 133.387 136.746 127.347 137.036C126.009 137.092 124.707 137.488 123.563 138.185C122.419 138.882 121.472 139.859 120.808 141.022C120.145 142.186 119.788 143.499 119.77 144.839C119.753 146.178 120.076 147.5 120.709 148.681Z" fill="#FFB573"/>
<path d="M130.301 141.233C133.001 140.974 133.961 144.296 132.916 147.92C135.103 149.81 134.861 156.551 126.659 156.714C123.083 156.786 114.911 150.909 116.995 146.337C119.079 141.765 130.301 141.233 130.301 141.233Z" fill="#263238"/>
<path d="M128.386 144.96C132.294 142.369 134.342 138.986 133.321 135.9C132.3 132.814 128.525 131.757 124.98 132.56C121.434 133.363 124.478 135.435 124.478 135.435C124.478 135.435 119.725 134.831 117.327 136.842C114.929 138.854 118.07 139.53 118.07 139.53C118.07 139.53 113.582 143.438 117.085 146.669C119.815 149.188 126.031 146.5 128.386 144.96Z" fill="#263238"/>
<path d="M120.522 161.141C120.927 159.202 122.334 158.453 123.717 157.867C125.1 157.282 136.625 158.067 139.385 158.647C140.033 159.822 140.618 161.032 141.137 162.271L120.522 161.141Z" fill="#407BFF"/>
<path d="M130.077 148.234C130.473 148.712 130.96 149.107 131.51 149.396C132.059 149.685 132.66 149.863 133.279 149.919C134.94 150.058 135.471 148.493 134.758 147.086C134.118 145.824 132.481 144.229 130.935 144.749C130.6 144.868 130.3 145.068 130.061 145.332C129.823 145.596 129.654 145.915 129.569 146.26C129.484 146.606 129.486 146.967 129.574 147.311C129.663 147.656 129.836 147.972 130.077 148.234Z" fill="#FFB573"/>
<path d="M143.196 160.108C135.151 159.22 127.033 159.22 118.988 160.108C117.876 160.248 116.804 160.614 115.838 161.183C114.872 161.752 114.033 162.512 113.371 163.417C112.71 164.322 112.24 165.352 111.99 166.445C111.741 167.538 111.718 168.67 111.921 169.772C113.326 177.603 114.073 185.537 114.156 193.491C114.212 197.522 115.651 201.412 118.231 204.509C120.812 207.606 124.377 209.723 128.332 210.506C132.971 211.458 137.679 212.032 142.411 212.221C144.735 212.277 147.046 211.85 149.197 210.967C151.348 210.084 153.292 208.765 154.907 207.092C156.521 205.419 157.771 203.429 158.577 201.248C159.383 199.067 159.727 196.742 159.589 194.422C158.695 179.539 152.589 171.331 149.641 164.826C149.059 163.554 148.161 162.453 147.033 161.627C145.905 160.802 144.584 160.279 143.196 160.108Z" fill="#263238"/>
<path d="M69.7982 168.28H56.2566V169.482H69.7982V168.28Z" fill="#263238"/>
<path d="M76.2429 166.191L76.8107 169.815C76.0134 173.602 71.3203 171.735 71.3203 171.735H68.699C68.2391 171.706 67.8045 171.515 67.4727 171.195C67.1408 170.875 66.9333 170.448 66.887 169.99L66.4702 167.453C66.3563 166.937 66.4468 166.397 66.7228 165.946C66.9988 165.496 67.4387 165.17 67.95 165.037L70.2029 164.656C70.8576 164.543 71.5303 164.595 72.1599 164.807L76.2429 166.191Z" fill="#FFB573"/>
<path d="M121.76 174.284L116.016 175.263L110.242 176.211L104.504 177.183C102.601 177.516 100.699 177.842 98.8325 178.192L97.7634 178.391H97.3225C95.0636 178.289 93.0945 178.041 91.0892 177.787C89.084 177.534 87.1451 177.22 85.2002 176.9C83.2554 176.579 81.3286 176.217 79.4018 175.83C77.4751 175.444 75.5725 175.039 73.6397 174.574L74.7692 165.369C76.6778 165.369 78.6166 165.424 80.5374 165.442L86.2814 165.55C88.19 165.605 90.0866 165.623 91.959 165.647C93.8314 165.671 95.7098 165.647 97.3225 165.575L95.8065 165.756C97.7755 165.182 99.7264 164.638 101.683 164.137C103.64 163.636 105.579 163.152 107.53 162.699C109.481 162.246 111.432 161.8 113.383 161.389C115.334 160.978 117.279 160.579 119.284 160.229L121.76 174.284Z" fill="#263238"/>
<path d="M183.115 186.908L182.758 190.574C183.773 194.307 188.345 192.169 188.345 192.169L190.967 192.036C191.425 191.979 191.849 191.763 192.164 191.425C192.479 191.087 192.664 190.649 192.688 190.188L192.954 187.621C193.041 187.098 192.92 186.562 192.618 186.126C192.316 185.691 191.855 185.39 191.335 185.289L189.064 185.035C188.404 184.963 187.736 185.054 187.119 185.301L183.115 186.908Z" fill="#FFB573"/>
<path d="M148.681 163.237C150.233 164.656 151.779 166.136 153.331 167.58L157.946 171.965L167.139 180.662L165.798 179.793C167.102 180.508 168.45 181.141 169.833 181.689C171.306 182.257 172.853 182.807 174.441 183.296C176.03 183.785 177.667 184.238 179.309 184.667C180.137 184.884 180.964 185.102 181.792 185.271L184.208 185.875L183.513 195.092C182.456 195.122 181.556 195.122 180.59 195.092C179.624 195.062 178.687 195.038 177.733 194.977C175.836 194.865 173.93 194.675 172.013 194.409C170.092 194.12 168.16 193.775 166.203 193.286C164.153 192.777 162.146 192.111 160.199 191.293L159.722 191.094L158.852 190.447C157.112 189.1 155.409 187.753 153.73 186.382C152.051 185.011 150.384 183.646 148.741 182.245C147.098 180.844 145.455 179.467 143.831 178.053C142.206 176.64 140.599 175.226 138.999 173.753L148.681 163.237Z" fill="#263238"/>
<path d="M203.397 190.49H172.206C170.284 190.49 168.441 191.253 167.081 192.612C165.722 193.972 164.958 195.815 164.958 197.738V245.737C164.958 247.66 165.722 249.503 167.081 250.863C168.441 252.222 170.284 252.985 172.206 252.985H196.149C198.071 252.985 199.915 252.222 201.274 250.863C202.633 249.503 203.397 247.66 203.397 245.737V211.563C206.148 211.497 208.764 210.358 210.686 208.389C212.608 206.42 213.684 203.778 213.684 201.026C213.684 198.275 212.608 195.632 210.686 193.663C208.764 191.694 206.148 190.555 203.397 190.49Z" fill="#407BFF"/>
<path opacity="0.2" d="M187.457 211.563L203.397 217.301V211.563H187.457Z" fill="black"/>
<path d="M165.496 169.482H45.5658C44.6575 169.461 43.7556 169.638 42.9232 170.002C42.0908 170.366 41.3481 170.908 40.7472 171.589C40.1464 172.271 39.7019 173.075 39.445 173.947C39.1881 174.818 39.1249 175.735 39.26 176.634C39.5288 178.58 40.4806 180.367 41.9456 181.676C43.4105 182.985 45.2931 183.73 47.257 183.779L54.6258 245.737C54.9022 247.71 55.8689 249.52 57.354 250.847C58.8391 252.174 60.7466 252.932 62.7375 252.985H175.444C176.364 253.005 177.276 252.824 178.119 252.454C178.961 252.084 179.712 251.535 180.32 250.845C180.928 250.155 181.378 249.34 181.639 248.458C181.899 247.576 181.964 246.647 181.828 245.737L173.632 176.73C173.356 174.754 172.386 172.939 170.896 171.612C169.405 170.284 167.491 169.529 165.496 169.482Z" fill="#407BFF"/>
<path opacity="0.2" d="M157.173 171.494H40.8485C40.2268 172.183 39.7631 172.999 39.4898 173.886C39.2164 174.773 39.1401 175.708 39.266 176.628C39.5335 178.575 40.4848 180.363 41.9499 181.674C43.4149 182.984 45.2982 183.73 47.263 183.779L54.6258 245.737C54.9009 247.709 55.8663 249.52 57.3505 250.847C58.8346 252.174 60.7412 252.932 62.7314 252.985H171.85C172.489 252.286 172.967 251.454 173.249 250.549C173.53 249.644 173.61 248.688 173.481 247.749L165.285 178.742C165.001 176.772 164.033 174.966 162.549 173.64C161.065 172.315 159.162 171.554 157.173 171.494Z" fill="black"/>
<path opacity="0.1" d="M158.852 184.081H50.132C50.0519 184.081 49.9751 184.049 49.9185 183.993C49.8618 183.936 49.83 183.859 49.83 183.779C49.83 183.699 49.8618 183.622 49.9185 183.566C49.9751 183.509 50.0519 183.477 50.132 183.477H158.852C158.932 183.477 159.009 183.509 159.066 183.566C159.122 183.622 159.154 183.699 159.154 183.779C159.154 183.859 159.122 183.936 159.066 183.993C159.009 184.049 158.932 184.081 158.852 184.081Z" fill="black"/>
<path d="M171.999 181.838C174.549 179.131 174.145 174.607 171.096 171.734C168.047 168.86 163.507 168.725 160.957 171.432C158.406 174.139 158.81 178.663 161.859 181.536C164.908 184.41 169.448 184.545 171.999 181.838Z" fill="#407BFF"/>
<path d="M224.437 149.915L218.989 150.977C218.282 151.115 217.82 151.801 217.958 152.508L219.021 157.956C219.159 158.663 219.844 159.124 220.551 158.986L225.999 157.924C226.707 157.786 227.168 157.1 227.03 156.393L225.967 150.945C225.829 150.238 225.144 149.777 224.437 149.915Z" fill="#263238"/>
<path d="M237.668 175.764L216.437 179.907C216.258 179.943 216.072 179.938 215.895 179.894C215.717 179.85 215.551 179.768 215.409 179.652C215.267 179.537 215.151 179.392 215.071 179.227C214.991 179.063 214.948 178.883 214.945 178.699L214.77 155.947C214.776 155.66 214.88 155.383 215.064 155.164C215.249 154.944 215.503 154.794 215.785 154.739L228.801 152.208C229.088 152.152 229.384 152.198 229.64 152.339C229.896 152.479 230.095 152.704 230.203 152.975L238.592 174.115C238.653 174.284 238.677 174.463 238.662 174.642C238.647 174.821 238.594 174.994 238.507 175.151C238.419 175.307 238.299 175.443 238.154 175.549C238.009 175.654 237.844 175.728 237.668 175.764Z" fill="#407BFF"/>
<path d="M197.182 245.731C197.022 245.731 196.868 245.668 196.755 245.554C196.641 245.441 196.578 245.288 196.578 245.127V180.294C196.578 180.154 196.625 180.018 196.711 179.907L221.366 150.046C221.468 149.922 221.615 149.843 221.774 149.827C221.934 149.811 222.093 149.859 222.218 149.961C222.342 150.063 222.42 150.21 222.436 150.369C222.452 150.529 222.404 150.689 222.302 150.813L197.786 180.511V245.139C197.783 245.298 197.718 245.448 197.605 245.559C197.492 245.669 197.34 245.731 197.182 245.731Z" fill="#263238"/>
<path d="M197.182 181.828C198.029 181.828 198.716 181.141 198.716 180.294C198.716 179.447 198.029 178.76 197.182 178.76C196.335 178.76 195.648 179.447 195.648 180.294C195.648 181.141 196.335 181.828 197.182 181.828Z" fill="#263238"/>
<path d="M223.51 151.695C223.309 151.99 223.025 152.219 222.693 152.353C222.362 152.487 221.999 152.521 221.649 152.449C221.298 152.377 220.977 152.203 220.726 151.949C220.474 151.695 220.304 151.373 220.235 151.022C220.166 150.671 220.203 150.308 220.34 149.978C220.477 149.648 220.709 149.366 221.006 149.167C221.303 148.969 221.653 148.862 222.01 148.862C222.368 148.861 222.717 148.966 223.015 149.164C223.215 149.296 223.386 149.467 223.52 149.667C223.653 149.866 223.745 150.09 223.791 150.326C223.837 150.561 223.836 150.803 223.788 151.038C223.74 151.273 223.645 151.496 223.51 151.695Z" fill="#263238"/>
<path d="M199.32 251.584H195.092V231.151C195.094 230.591 195.317 230.054 195.713 229.658C196.109 229.262 196.646 229.038 197.206 229.037C197.766 229.04 198.302 229.264 198.697 229.66C199.093 230.055 199.317 230.591 199.32 231.151V251.584Z" fill="#263238"/>
<path d="M187.614 251.034H206.743C207.597 251.034 208.416 251.374 209.02 251.977C209.623 252.581 209.962 253.4 209.962 254.254H184.395C184.395 253.4 184.734 252.581 185.338 251.977C185.942 251.374 186.761 251.034 187.614 251.034Z" fill="#263238"/>
</svg>
