<svg width="369" height="370" viewBox="0 0 369 370" fill="none" xmlns="http://www.w3.org/2000/svg">
<path d="M370 282.976H0V283.161H370V282.976Z" fill="#EBEBEB"/>
<path d="M332.926 294.883H321.9V295.068H332.926V294.883Z" fill="#EBEBEB"/>
<path d="M245.103 296.895H238.672V297.08H245.103V296.895Z" fill="#EBEBEB"/>
<path d="M318.777 288.015H293.477V288.2H318.777V288.015Z" fill="#EBEBEB"/>
<path d="M81.1262 291.834H49.1656V292.019H81.1262V291.834Z" fill="#EBEBEB"/>
<path d="M99.2414 291.834H87.7122V292.019H99.2414V291.834Z" fill="#EBEBEB"/>
<path d="M188.522 289.347H119.199V289.532H188.522V289.347Z" fill="#EBEBEB"/>
<path d="M175.38 249.972H32.4934C31.374 249.97 30.3012 249.524 29.5104 248.732C28.7195 247.94 28.2754 246.866 28.2754 245.747V44.8884C28.2851 43.7755 28.7336 42.7113 29.5234 41.9271C30.3131 41.1429 31.3804 40.7019 32.4934 40.7H175.38C176.501 40.7 177.575 41.1452 178.368 41.9376C179.16 42.73 179.605 43.8048 179.605 44.9254V245.747C179.605 246.867 179.16 247.942 178.368 248.734C177.575 249.527 176.501 249.972 175.38 249.972ZM32.4934 40.848C31.4231 40.85 30.3973 41.2765 29.6412 42.034C28.8851 42.7915 28.4604 43.8181 28.4604 44.8884V245.747C28.4604 246.817 28.8851 247.844 29.6412 248.601C30.3973 249.359 31.4231 249.785 32.4934 249.787H175.38C176.451 249.785 177.478 249.359 178.235 248.601C178.992 247.844 179.418 246.818 179.42 245.747V44.8884C179.418 43.8174 178.992 42.7909 178.235 42.0336C177.478 41.2763 176.451 40.85 175.38 40.848H32.4934Z" fill="#EBEBEB"/>
<path d="M335.449 249.972H192.555C191.435 249.97 190.362 249.524 189.57 248.732C188.778 247.94 188.332 246.867 188.33 245.747V44.8884C188.342 43.7748 188.792 42.7106 189.583 41.9266C190.374 41.1426 191.442 40.7019 192.555 40.7H335.449C336.561 40.7039 337.627 41.1457 338.415 41.9297C339.203 42.7137 339.65 43.7767 339.66 44.8884V245.747C339.66 246.865 339.217 247.937 338.428 248.729C337.638 249.521 336.567 249.968 335.449 249.972ZM192.555 40.848C191.484 40.85 190.458 41.2763 189.701 42.0336C188.943 42.7909 188.517 43.8174 188.515 44.8884V245.747C188.517 246.818 188.943 247.844 189.701 248.601C190.458 249.359 191.484 249.785 192.555 249.787H335.449C336.52 249.785 337.547 249.359 338.304 248.601C339.062 247.844 339.488 246.818 339.49 245.747V44.8884C339.488 43.8174 339.062 42.7909 338.304 42.0336C337.547 41.2763 336.52 40.85 335.449 40.848H192.555Z" fill="#EBEBEB"/>
<path d="M163.91 277.574H169.756V237.54H163.91V277.574Z" fill="#F0F0F0"/>
<path d="M45.6654 282.976H165.901V277.574H45.6654V282.976Z" fill="#F0F0F0"/>
<path d="M163.91 237.54H41.8026V277.574H163.91V237.54Z" fill="#F5F5F5"/>
<path d="M156.007 244.511H49.6984V267.377H156.007V244.511Z" fill="#F0F0F0"/>
<path d="M76.997 247.567H128.723C129.692 247.567 130.477 246.782 130.477 245.813V245.488C130.477 244.519 129.692 243.734 128.723 243.734H76.997C76.0284 243.734 75.2432 244.519 75.2432 245.488V245.813C75.2432 246.782 76.0284 247.567 76.997 247.567Z" fill="#F5F5F5"/>
<path d="M39.1238 237.54L163.91 237.54V233.966L39.1238 233.966V237.54Z" fill="#F0F0F0"/>
<path d="M172.561 233.966H163.91V237.54H172.561V233.966Z" fill="#E6E6E6"/>
<path d="M159.448 181.159L315.906 181.159V61.1684L159.448 61.1684L159.448 181.159Z" fill="#E6E6E6"/>
<path d="M144.803 56.499H324.756C325.116 56.499 325.46 56.6417 325.714 56.8956C325.968 57.1496 326.111 57.4941 326.111 57.8532C326.109 58.2111 325.965 58.5536 325.711 58.806C325.458 59.0584 325.114 59.2 324.756 59.2H144.803C144.625 59.201 144.448 59.1667 144.283 59.0991C144.118 59.0314 143.967 58.9318 143.841 58.806C143.714 58.6802 143.614 58.5305 143.545 58.3658C143.477 58.201 143.442 58.0243 143.442 57.8458C143.443 57.668 143.479 57.4921 143.548 57.3281C143.616 57.1642 143.717 57.0155 143.843 56.8904C143.97 56.7653 144.12 56.6664 144.284 56.5993C144.449 56.5321 144.625 56.498 144.803 56.499Z" fill="#E6E6E6"/>
<path d="M153.646 181.159L313.198 181.159V61.1684L153.646 61.1684L153.646 181.159Z" fill="#F0F0F0"/>
<path d="M159.448 181.159H315.906V185H155.452L159.448 181.159Z" fill="#E6E6E6"/>
<path d="M143.982 181.159H303.533L299.537 185H139.993L143.982 181.159Z" fill="#F0F0F0"/>
<path d="M305.072 173.042V69.2862L161.764 69.2862V173.042H305.072Z" fill="#FAFAFA"/>
<path d="M257.254 173.034L209.605 69.2862H187.102L234.758 173.034H257.254Z" fill="white"/>
<path d="M229.925 173.034L182.269 69.2862H173.5L221.156 173.034H229.925Z" fill="white"/>
<path d="M162.8 173.042V69.2862H161.771V173.042H162.8Z" fill="#E6E6E6"/>
<g opacity="0.4">
<path d="M304.984 153.084H318.955V54.0644H304.984V153.084Z" fill="#F0F0F0"/>
<path d="M299.537 153.084H310.423V54.0644H299.537V153.084Z" fill="#E6E6E6"/>
<path d="M291.012 153.084H304.984V54.0644H291.012V153.084Z" fill="#F0F0F0"/>
<path d="M285.566 153.084H296.451V54.0644H285.566V153.084Z" fill="#E6E6E6"/>
<path d="M277.034 153.084H291.005V54.0644H277.034V153.084Z" fill="#F0F0F0"/>
</g>
<g opacity="0.4">
<path d="M166.974 153.084H175.025V54.0644H166.974V153.084Z" fill="#F0F0F0"/>
<path d="M163.829 153.084H170.104V54.0644H163.829V153.084Z" fill="#E6E6E6"/>
<path d="M158.915 153.084H166.966V54.0644H158.915V153.084Z" fill="#F0F0F0"/>
<path d="M155.777 153.084H162.053V54.0644H155.777V153.084Z" fill="#E6E6E6"/>
<path d="M150.864 153.084H158.915V54.0644H150.864V153.084Z" fill="#F0F0F0"/>
</g>
<path d="M116.328 54.131H52.0442V218.381H116.328V54.131Z" fill="#F5F5F5"/>
<path d="M116.335 218.374H118.097L118.097 54.1236H116.335L116.335 218.374Z" fill="#E0E0E0"/>
<path d="M110.371 212.424L110.371 60.0806H57.9938L57.9938 212.424H110.371Z" fill="white"/>
<path d="M76.4346 212.424L93.8172 60.0806H103.844L86.469 212.424H76.4346Z" fill="#FAFAFA"/>
<path d="M67.747 212.424L85.1222 60.0806H90.1394L72.7642 212.424H67.747Z" fill="#FAFAFA"/>
<path d="M185 316.394C264.241 316.394 328.479 312.644 328.479 308.018C328.479 303.391 264.241 299.641 185 299.641C105.759 299.641 41.5214 303.391 41.5214 308.018C41.5214 312.644 105.759 316.394 185 316.394Z" fill="#F5F5F5"/>
<path d="M294.557 308.018H208.125C206.921 308.031 205.727 307.793 204.62 307.319C203.513 306.845 202.517 306.146 201.694 305.266C200.872 304.386 200.242 303.345 199.845 302.208C199.447 301.072 199.291 299.865 199.386 298.664L211.448 115.832C211.65 113.313 212.782 110.96 214.625 109.23C216.468 107.501 218.889 106.52 221.415 106.479H307.84C309.044 106.467 310.236 106.705 311.343 107.18C312.449 107.654 313.444 108.353 314.266 109.233C315.087 110.112 315.716 111.154 316.113 112.29C316.51 113.426 316.667 114.632 316.572 115.832L304.525 298.664C304.323 301.183 303.19 303.537 301.347 305.266C299.504 306.995 297.084 307.976 294.557 308.018Z" fill="#263238"/>
<path d="M312.754 155.644H302.29C301.999 155.647 301.712 155.59 301.444 155.475C301.177 155.361 300.937 155.192 300.739 154.98C300.54 154.768 300.388 154.516 300.292 154.242C300.196 153.968 300.158 153.677 300.181 153.387L301.224 137.551C301.283 136.949 301.561 136.39 302.006 135.98C302.451 135.57 303.032 135.339 303.637 135.331H314.093C314.38 135.329 314.665 135.385 314.929 135.497C315.194 135.609 315.432 135.775 315.63 135.983C315.828 136.191 315.981 136.438 316.079 136.708C316.177 136.977 316.219 137.265 316.202 137.551L315.159 153.387C315.111 153.995 314.838 154.564 314.393 154.981C313.948 155.399 313.364 155.635 312.754 155.644Z" fill="#263238"/>
<path d="M244.037 103.889H240.211V104.629H244.037V103.889Z" fill="#407BFF"/>
<path d="M235.498 103.889H221.586V104.629H235.498V103.889Z" fill="#407BFF"/>
<path d="M293.24 308.018H206.808C205.604 308.029 204.411 307.791 203.304 307.317C202.198 306.843 201.202 306.144 200.38 305.264C199.558 304.384 198.928 303.343 198.53 302.207C198.132 301.071 197.975 299.864 198.068 298.664L210.16 115.832C210.362 113.313 211.495 110.96 213.338 109.23C215.18 107.501 217.601 106.52 220.128 106.479H306.56C307.759 106.474 308.946 106.718 310.046 107.195C311.146 107.673 312.135 108.373 312.951 109.252C313.767 110.131 314.391 111.169 314.785 112.302C315.179 113.435 315.334 114.637 315.24 115.832L303.208 298.664C303.006 301.183 301.873 303.537 300.03 305.266C298.187 306.995 295.767 307.976 293.24 308.018Z" fill="#407BFF"/>
<path d="M297.162 286.72H205.72C205.036 286.728 204.358 286.592 203.729 286.323C203.1 286.054 202.534 285.657 202.067 285.157C201.6 284.658 201.242 284.066 201.016 283.42C200.79 282.775 200.701 282.089 200.755 281.407L211.255 122.233C211.369 120.806 212.009 119.472 213.051 118.49C214.093 117.508 215.463 116.949 216.894 116.92H308.358C309.042 116.913 309.72 117.048 310.349 117.317C310.978 117.586 311.544 117.983 312.011 118.483C312.478 118.983 312.836 119.574 313.062 120.22C313.288 120.866 313.377 121.551 313.323 122.233L302.823 281.407C302.709 282.838 302.066 284.175 301.019 285.158C299.972 286.14 298.597 286.697 297.162 286.72Z" fill="white"/>
<path d="M280.105 116.92H261.945L217.952 286.72H236.112L280.105 116.92Z" fill="#FAFAFA"/>
<path d="M296.104 116.92H287.024L243.031 286.72H252.111L296.104 116.92Z" fill="#FAFAFA"/>
<path d="M284.042 234.106L264.298 159.433C263.77 157.448 262.477 155.753 260.701 154.719C258.926 153.686 256.813 153.399 254.826 153.92L208.118 166.263L201.887 263.84L278.529 243.586C280.513 243.054 282.207 241.759 283.24 239.983C284.273 238.207 284.561 236.094 284.042 234.106Z" fill="#F0F0F0"/>
<path opacity="0.2" d="M254.746 299.362C257.12 297.066 257.302 293.405 255.154 291.184C253.006 288.964 249.34 289.025 246.967 291.321C244.593 293.617 244.411 297.278 246.559 299.499C248.707 301.719 252.373 301.658 254.746 299.362Z" fill="white"/>
<path opacity="0.2" d="M265.386 111.4C265.335 112.044 265.044 112.647 264.572 113.089C264.1 113.531 263.48 113.781 262.833 113.79C262.527 113.791 262.223 113.728 261.942 113.606C261.661 113.484 261.409 113.305 261.2 113.081C260.991 112.856 260.832 112.591 260.731 112.302C260.63 112.012 260.59 111.705 260.613 111.4C260.663 110.754 260.953 110.151 261.425 109.709C261.898 109.266 262.519 109.017 263.166 109.009C263.473 109.009 263.776 109.071 264.057 109.193C264.338 109.315 264.591 109.494 264.799 109.719C265.008 109.943 265.168 110.208 265.269 110.498C265.37 110.787 265.41 111.094 265.386 111.4Z" fill="white"/>
<path opacity="0.2" d="M264.306 111.4C264.28 111.754 264.122 112.087 263.863 112.33C263.604 112.574 263.263 112.712 262.907 112.717C262.737 112.719 262.569 112.687 262.413 112.62C262.257 112.554 262.116 112.455 262 112.331C261.885 112.207 261.796 112.06 261.741 111.899C261.685 111.739 261.664 111.569 261.679 111.4C261.705 111.045 261.863 110.713 262.122 110.469C262.381 110.225 262.722 110.087 263.077 110.082C263.247 110.08 263.416 110.113 263.572 110.179C263.728 110.246 263.868 110.344 263.984 110.468C264.1 110.592 264.188 110.739 264.244 110.9C264.299 111.06 264.32 111.23 264.306 111.4Z" fill="white"/>
<path d="M125.297 102.164C128.057 95.3786 127.065 87.1128 119.236 85.2628C117.511 84.8183 115.706 84.7843 113.965 85.1634C112.224 85.5424 110.596 86.3241 109.212 87.4457C107.828 88.5673 106.726 89.9976 105.994 91.622C105.262 93.2463 104.921 95.0195 104.999 96.7994C105.309 104.199 110.179 110.364 101.646 115.729C93.1142 121.094 94.0244 137.263 110.526 134.14C127.028 131.017 118.111 122.529 118.111 122.529C118.111 122.529 114.064 125.83 112.761 122.47C111.111 118.119 122.1 110.105 125.297 102.164Z" fill="#263238"/>
<path d="M96.2592 124.424L95.8966 124.342C96.9992 119.406 98.7308 118.134 100.559 116.787C102.386 115.44 104.118 114.16 105.517 109.305C106.175 107.019 105.761 104.488 105.354 102.046C104.836 98.9306 104.303 95.7042 105.909 92.8182L106.227 93.0032C104.688 95.7708 105.213 98.9232 105.716 101.987C106.131 104.473 106.56 107.041 105.872 109.387C104.444 114.36 102.579 115.729 100.781 117.061C98.9824 118.393 97.3322 119.628 96.2592 124.424Z" fill="#263238"/>
<path d="M146.313 139.438C146.365 139.69 146.453 140.067 146.535 140.408L146.794 141.451C146.971 142.154 147.171 142.857 147.378 143.56C147.8 144.959 148.252 146.372 148.74 147.763C149.717 150.563 150.833 153.312 152.085 155.999L153.017 157.946C153.175 158.294 153.399 158.608 153.676 158.871C154.507 159.539 155.5 159.978 156.554 160.143C159.321 160.591 162.142 160.591 164.909 160.143L165.908 163.288C165.142 163.626 164.359 163.922 163.562 164.176C162.77 164.44 161.965 164.662 161.15 164.842C159.452 165.233 157.71 165.395 155.97 165.323C153.922 165.266 151.931 164.638 150.22 163.51C149.258 162.843 148.446 161.98 147.837 160.98L147.719 160.795L147.645 160.669L147.497 160.402L147.193 159.884L146.594 158.834C145.045 156.011 143.686 153.089 142.524 150.087C141.962 148.607 141.407 147.06 140.955 145.499C140.733 144.759 140.511 143.937 140.311 143.138C140.112 142.339 139.934 141.584 139.771 140.637L146.313 139.438Z" fill="#FFC3BD"/>
<path d="M140.6 129.093C148.067 132.423 148 143.612 148 143.612L140.134 148.34C140.134 148.34 134.214 139.579 134.658 135.598C135.094 131.446 136.367 127.221 140.6 129.093Z" fill="#407BFF"/>
<path opacity="0.2" d="M141.777 138.639C139.734 136.574 137.936 138.957 136.293 141.599C137.42 143.935 138.703 146.192 140.134 148.355L143.36 146.416C143.997 143.952 143.812 140.711 141.777 138.639Z" fill="black"/>
<path d="M164.132 160.425L169.386 157.805L169.445 164.68C169.445 164.68 165.523 165.36 162.911 162.608L164.132 160.425Z" fill="#FFC3BD"/>
<path d="M175.032 159.026L174.129 164.132L169.445 164.68L169.386 157.805L175.032 159.026Z" fill="#FFC3BD"/>
<path d="M116.039 302.556L122.537 303.178L125.563 288.06L119.066 287.438L116.039 302.556Z" fill="#FFC3BD"/>
<path d="M73.4376 284.833L78.7212 288.681L87.5346 276.175L82.2436 272.327L73.4376 284.833Z" fill="#FFC3BD"/>
<path d="M80.66 286.276L76.3088 280.319C76.2365 280.214 76.1277 280.139 76.0033 280.109C75.879 280.079 75.7479 280.096 75.6354 280.157L70.4184 282.924C70.2895 282.999 70.1778 283.1 70.0907 283.221C70.0036 283.342 69.943 283.48 69.913 283.626C69.8829 283.772 69.8841 283.923 69.9164 284.069C69.9486 284.214 70.0113 284.351 70.1002 284.471C71.6542 286.521 72.5052 287.431 74.4218 290.058C75.6058 291.671 77.9738 295.408 79.6018 297.635C81.2298 299.863 83.5164 298.375 83.0428 297.302C80.8968 292.485 80.8228 289.666 80.9856 287.409C81.0166 287.004 80.9011 286.602 80.66 286.276Z" fill="#263238"/>
<path d="M123.395 301.217H115.595C115.455 301.217 115.319 301.264 115.208 301.349C115.097 301.435 115.017 301.555 114.981 301.691L113.287 307.84C113.245 307.985 113.238 308.139 113.266 308.287C113.295 308.436 113.357 308.576 113.449 308.696C113.541 308.816 113.66 308.913 113.796 308.979C113.933 309.045 114.082 309.078 114.234 309.076C116.987 309.076 118.289 309.076 121.715 309.076H132.201C135.05 309.076 135.642 306.197 134.465 305.931C129.182 304.762 126.133 303.148 124.498 301.609C124.193 301.344 123.799 301.204 123.395 301.217Z" fill="#263238"/>
<path opacity="0.2" d="M125.563 288.067L124.002 295.859H117.379L119.066 287.446L125.563 288.067Z" fill="black"/>
<path opacity="0.2" d="M82.2436 272.327L87.5346 276.183L82.991 282.628L77.7 278.773L82.2436 272.327Z" fill="black"/>
<path d="M143.678 134.991C143.22 139.986 141.562 149.791 136.715 168.949L110.119 166.648C111.4 156.665 111.999 150.198 109.498 131.298C109.417 130.673 109.465 130.039 109.639 129.433C109.813 128.828 110.11 128.265 110.511 127.779C110.912 127.293 111.409 126.895 111.971 126.61C112.532 126.324 113.146 126.157 113.775 126.118C115.692 126.015 117.971 125.948 120.257 126.037C124.303 126.097 128.339 126.446 132.334 127.08C134.68 127.502 137.181 128.109 139.216 128.642C140.591 129.002 141.793 129.837 142.61 130.999C143.427 132.162 143.805 133.576 143.678 134.991Z" fill="#407BFF"/>
<path opacity="0.2" d="M110.179 136.833C110.519 139.793 110.771 142.435 110.919 144.803C113.368 144.589 115.174 141.902 115.359 136.286C114.441 133.57 112.258 134.554 110.179 136.833Z" fill="black"/>
<path d="M136.715 168.949C136.715 168.949 145.713 208.761 139.675 236.83C135.657 255.626 126.71 293.595 126.71 293.595L115.366 293.306C115.366 293.306 120.783 253.457 123.055 237.806C126.94 211.004 117.209 167.292 117.209 167.292L136.715 168.949Z" fill="#263238"/>
<path opacity="0.2" d="M126.34 176.993L120.664 185.94C122.373 196.548 123.458 207.247 123.913 217.982C131.89 203.7 128.109 184.549 126.34 176.993Z" fill="black"/>
<path d="M128.338 294.187L114.323 293.832L115.137 289.525L129.433 290.198L128.338 294.187Z" fill="#407BFF"/>
<path d="M130.899 168.528C130.899 168.528 125.622 210.745 114.175 233.796C104.932 252.414 85.5958 282.007 85.5958 282.007L78.5288 276.346C78.5288 276.346 90.6204 243.615 97.4876 231.25C114.337 200.91 100.566 177.785 110.119 166.648L130.899 168.528Z" fill="#263238"/>
<path d="M241.571 130.958L115.788 183.806C111.839 185.465 109.983 190.011 111.642 193.96L141.559 265.164C143.218 269.113 147.764 270.969 151.713 269.31L277.495 216.461C281.444 214.802 283.3 210.256 281.641 206.308L251.724 135.103C250.065 131.155 245.519 129.299 241.571 130.958Z" fill="#407BFF"/>
<path opacity="0.1" d="M241.571 130.958L115.788 183.806C111.839 185.465 109.983 190.011 111.642 193.96L141.559 265.164C143.218 269.113 147.764 270.969 151.713 269.31L277.495 216.461C281.444 214.802 283.3 210.256 281.641 206.308L251.724 135.103C250.065 131.155 245.519 129.299 241.571 130.958Z" fill="black"/>
<path opacity="0.2" d="M150.484 180.636L125.856 190.984C123.957 191.782 123.064 193.968 123.862 195.867L129.053 208.222C129.851 210.121 132.037 211.014 133.936 210.216L158.565 199.868C160.464 199.07 161.356 196.884 160.558 194.985L155.367 182.63C154.569 180.731 152.383 179.838 150.484 180.636Z" fill="white"/>
<path opacity="0.4" d="M167.766 229.475L143.635 239.614C142.923 239.913 142.588 240.733 142.888 241.445L144.719 245.804C145.018 246.516 145.838 246.851 146.55 246.552L170.681 236.413C171.393 236.114 171.728 235.294 171.429 234.582L169.597 230.223C169.298 229.511 168.478 229.176 167.766 229.475Z" fill="white"/>
<path opacity="0.4" d="M199.161 216.288L175.03 226.427C174.318 226.726 173.983 227.546 174.283 228.258L176.114 232.617C176.413 233.329 177.233 233.664 177.945 233.365L202.076 223.226C202.788 222.927 203.123 222.107 202.823 221.395L200.992 217.036C200.693 216.324 199.873 215.989 199.161 216.288Z" fill="white"/>
<path opacity="0.4" d="M230.548 203.101L206.418 213.24C205.706 213.539 205.371 214.359 205.67 215.071L207.502 219.43C207.801 220.142 208.621 220.477 209.333 220.178L233.463 210.039C234.176 209.74 234.51 208.92 234.211 208.208L232.379 203.849C232.08 203.137 231.26 202.802 230.548 203.101Z" fill="white"/>
<path opacity="0.4" d="M261.943 189.914L237.813 200.052C237.101 200.352 236.766 201.171 237.065 201.884L238.897 206.243C239.196 206.955 240.016 207.29 240.728 206.991L264.858 196.852C265.57 196.553 265.905 195.733 265.606 195.021L263.774 190.662C263.475 189.949 262.655 189.615 261.943 189.914Z" fill="white"/>
<path d="M86.3358 282.791L77.2708 275.931L79.4982 271.95L89.133 279.424L86.3358 282.791Z" fill="#407BFF"/>
<path d="M109.853 165.057L108.447 167.336C108.336 167.506 108.543 167.721 108.847 167.743L136.745 170.156C136.981 170.156 137.189 170.074 137.218 169.926L137.662 167.566C137.699 167.403 137.499 167.247 137.24 167.225L110.304 164.894C110.222 164.881 110.137 164.889 110.058 164.917C109.979 164.946 109.908 164.994 109.853 165.057Z" fill="#407BFF"/>
<path opacity="0.5" d="M109.853 165.057L108.447 167.336C108.336 167.506 108.543 167.721 108.847 167.743L136.745 170.156C136.981 170.156 137.189 170.074 137.218 169.926L137.662 167.566C137.699 167.403 137.499 167.247 137.24 167.225L110.304 164.894C110.222 164.881 110.137 164.889 110.058 164.917C109.979 164.946 109.908 164.994 109.853 165.057Z" fill="black"/>
<path d="M113.22 168.38L112.48 168.32C112.339 168.32 112.236 168.224 112.251 168.135L112.857 165.072C112.857 164.976 113.005 164.916 113.153 164.931L113.893 164.99C114.041 164.99 114.145 165.087 114.123 165.175L113.516 168.239C113.486 168.328 113.353 168.394 113.22 168.38Z" fill="#407BFF"/>
<path d="M134.68 170.237L133.94 170.178C133.799 170.178 133.696 170.082 133.711 169.993L134.317 166.929C134.344 166.876 134.388 166.833 134.441 166.808C134.495 166.783 134.555 166.776 134.613 166.789L135.353 166.848C135.501 166.848 135.605 166.944 135.583 167.033L134.976 170.096C134.969 170.2 134.835 170.252 134.68 170.237Z" fill="#407BFF"/>
<path d="M123.95 169.312L123.21 169.245C123.062 169.245 122.958 169.149 122.981 169.06L123.587 165.997C123.587 165.908 123.735 165.841 123.876 165.856L124.616 165.923C124.757 165.923 124.86 166.019 124.845 166.108L124.239 169.171C124.224 169.26 124.098 169.319 123.95 169.312Z" fill="#407BFF"/>
<path d="M82.3176 289.569C82.2343 289.584 82.1493 289.584 82.066 289.569C81.2594 289.407 80.586 288.038 80.2308 287.238C80.2168 287.218 80.2093 287.193 80.2093 287.168C80.2093 287.143 80.2168 287.119 80.2308 287.098C80.25 287.083 80.2734 287.076 80.2974 287.076C80.3214 287.076 80.3448 287.083 80.364 287.098C80.6156 287.187 82.8208 288.038 82.991 288.844C83.0114 288.932 83.007 289.023 82.9782 289.108C82.9495 289.193 82.8975 289.268 82.8282 289.325C82.6883 289.459 82.5094 289.544 82.3176 289.569ZM80.5934 287.409C81.0966 288.511 81.659 289.214 82.1178 289.303C82.2214 289.319 82.3273 289.308 82.4256 289.272C82.5239 289.235 82.6115 289.175 82.6802 289.096C82.7172 289.068 82.7453 289.03 82.7611 288.987C82.7769 288.944 82.7796 288.897 82.769 288.852C82.6654 288.356 81.3556 287.719 80.5934 287.409Z" fill="#407BFF"/>
<path d="M82.3842 287.512C81.6808 287.599 80.9667 287.523 80.2974 287.29C80.277 287.281 80.2593 287.267 80.2463 287.248C80.2333 287.23 80.2254 287.209 80.2234 287.187C80.2205 287.164 80.2238 287.141 80.2329 287.12C80.242 287.099 80.2567 287.081 80.2752 287.068C80.3418 287.024 81.8662 285.914 82.7838 286.121C82.8971 286.143 83.0043 286.189 83.0977 286.257C83.1911 286.325 83.2683 286.412 83.324 286.513C83.3972 286.606 83.437 286.721 83.437 286.839C83.437 286.957 83.3972 287.072 83.324 287.164C83.0607 287.386 82.7284 287.509 82.3842 287.512ZM80.66 287.12C81.4 287.335 82.7838 287.349 83.1242 286.972C83.1834 286.913 83.2352 286.817 83.1242 286.624C83.0877 286.555 83.0361 286.496 82.9733 286.45C82.9105 286.403 82.8382 286.372 82.7616 286.358C82.14 286.232 81.0744 286.846 80.66 287.12Z" fill="#407BFF"/>
<path d="M126.858 302.475C126.141 302.457 125.427 302.368 124.727 302.209C124.703 302.198 124.683 302.181 124.669 302.159C124.655 302.138 124.647 302.112 124.647 302.087C124.647 302.061 124.655 302.035 124.669 302.014C124.683 301.992 124.703 301.975 124.727 301.964C125.053 301.809 127.879 300.484 128.59 300.988C128.656 301.029 128.708 301.089 128.741 301.16C128.774 301.231 128.786 301.31 128.775 301.387C128.773 301.532 128.737 301.675 128.671 301.803C128.604 301.932 128.508 302.043 128.39 302.127C127.93 302.404 127.393 302.526 126.858 302.475ZM125.171 302.031C126.015 302.186 127.569 302.394 128.205 301.913C128.288 301.848 128.355 301.766 128.404 301.673C128.452 301.58 128.48 301.477 128.486 301.372C128.486 301.269 128.486 301.224 128.42 301.202C128.02 300.928 126.348 301.513 125.171 302.031Z" fill="#407BFF"/>
<path d="M124.757 302.209C124.73 302.219 124.701 302.219 124.675 302.209C124.656 302.195 124.642 302.175 124.634 302.153C124.626 302.13 124.625 302.106 124.631 302.083C124.631 301.957 125.297 299.167 126.851 299.345C127.236 299.397 127.339 299.582 127.361 299.737C127.458 300.477 125.674 301.883 124.816 302.231L124.757 302.209ZM126.695 299.567C125.711 299.567 125.141 301.195 124.949 301.846C125.874 301.358 127.169 300.196 127.088 299.744C127.088 299.707 127.088 299.604 126.799 299.574L126.695 299.567Z" fill="#407BFF"/>
<path d="M113.065 136.967L112.672 137.522L112.243 138.151C111.955 138.58 111.666 139.016 111.392 139.468C110.83 140.356 110.319 141.281 109.801 142.206C108.778 144.066 107.879 145.992 107.108 147.97C106.33 149.937 105.68 151.951 105.161 154.001L104.814 155.481C104.814 155.437 104.769 155.592 104.851 155.874C105.105 156.664 105.477 157.413 105.953 158.094C107.149 159.812 108.491 161.424 109.964 162.911C111.444 164.48 113.087 165.997 114.722 167.506C116.358 169.016 118.074 170.466 119.791 171.895C121.508 173.323 123.262 174.766 124.971 176.157L123.121 178.888C119.157 176.537 115.33 173.962 111.659 171.177C109.809 169.786 107.996 168.32 106.242 166.737C104.403 165.125 102.725 163.338 101.232 161.401C100.337 160.264 99.637 158.986 99.16 157.62C98.8361 156.669 98.7275 155.658 98.8418 154.66V154.453V154.342L98.8788 154.12L98.9528 153.668L99.1082 152.773C99.5436 150.39 100.157 148.042 100.943 145.75C101.757 143.47 102.718 141.245 103.822 139.09C104.377 138.01 104.984 136.967 105.635 135.938C105.953 135.42 106.286 134.909 106.634 134.399L107.182 133.659C107.374 133.4 107.537 133.17 107.796 132.852L113.065 136.967Z" fill="#FFC3BD"/>
<path d="M112.406 126.54C107.33 127.872 102.431 140.178 102.431 140.178L109.002 146.187C109.002 146.187 119.325 136.774 118.977 132.527C118.689 128.915 116.483 125.46 112.406 126.54Z" fill="#407BFF"/>
<path opacity="0.2" d="M120.257 125.8C119.327 125.99 118.38 126.077 117.431 126.059C117.231 129.715 119.577 133.244 125.341 137.98C126.725 133.666 129.781 132.734 129.781 132.734L120.257 125.8Z" fill="black"/>
<path opacity="0.2" d="M132.334 126.962C132.334 126.962 133.008 127.058 134.613 127.428C135.686 129.078 137.078 134.162 133.918 137.788C132.689 133.348 129.759 132.786 129.759 132.786L132.334 126.962Z" fill="black"/>
<path d="M120.257 125.8C120.257 125.8 118.777 125.8 116.972 125.8C115.899 127.45 119.591 132.023 125.349 136.759C126.732 132.445 129.789 132.704 129.789 132.704L120.257 125.8Z" fill="white"/>
<path d="M132.334 126.962C132.334 126.962 133.008 127.058 134.613 127.428C135.686 129.078 138.003 133.548 134.843 137.144C133.614 132.704 129.759 132.763 129.759 132.763L132.334 126.962Z" fill="white"/>
<path d="M122.633 112.517C123.062 116.469 123.203 123.617 120.257 126.015C120.257 126.015 121.789 130.455 129.759 132.763C134.554 129.996 132.334 127.058 132.334 127.058C128.094 125.652 128.486 122.448 129.5 119.488L122.633 112.517Z" fill="#FFC3BD"/>
<path opacity="0.2" d="M125.43 115.366L129.5 119.488C129.251 120.173 129.063 120.879 128.938 121.597C127.302 121.219 124.934 119.517 124.912 117.771C124.942 116.945 125.117 116.131 125.43 115.366Z" fill="black"/>
<path d="M131.631 96.7254C132.926 95.2972 135.494 97.1176 136.441 100.618C137.862 105.798 134.073 106.168 132.09 103.578C130.107 100.988 130.551 97.9168 131.631 96.7254Z" fill="#263238"/>
<path d="M135.642 105.82C136.941 106.27 138.17 106.903 139.29 107.7C138.646 106.131 138.069 105.176 135.642 105.82Z" fill="#263238"/>
<path d="M136.389 106.064C137.441 105.855 138.518 105.795 139.586 105.887C138.535 105.08 137.773 104.68 136.389 106.064Z" fill="#263238"/>
<path d="M119.14 106.345C120.79 112.658 121.36 115.366 125.223 118.008C131.047 121.989 138.439 118.585 138.713 111.903C138.957 105.894 136.219 96.5848 129.463 95.2676C127.974 94.9654 126.433 95.0501 124.986 95.5139C123.539 95.9776 122.236 96.8048 121.2 97.9162C120.164 99.0277 119.431 100.386 119.07 101.862C118.71 103.338 118.734 104.882 119.14 106.345Z" fill="#FFC3BD"/>
<path d="M122.189 98.0204L120.361 100.144C119.813 100.772 119.039 101.158 118.208 101.219C117.377 101.28 116.555 101.011 115.921 100.47C115.292 99.9224 114.905 99.1493 114.843 98.3182C114.78 97.487 115.048 96.6648 115.588 96.0298L117.416 93.9134C117.964 93.2865 118.737 92.9003 119.568 92.838C120.398 92.7757 121.22 93.0423 121.856 93.5804C122.483 94.1288 122.869 94.9016 122.931 95.7322C122.993 96.5628 122.727 97.3846 122.189 98.0204Z" fill="white"/>
<path d="M123.876 100.388L121.656 101.498C120.745 101.945 119.694 102.012 118.733 101.686C117.772 101.361 116.98 100.668 116.528 99.7594C116.081 98.8471 116.013 97.7953 116.339 96.8333C116.665 95.8712 117.358 95.077 118.267 94.6238L120.487 93.5138C121.4 93.0677 122.453 93.001 123.415 93.3282C124.377 93.6554 125.171 94.3499 125.622 95.2602C126.068 96.1722 126.135 97.2237 125.807 98.1847C125.48 99.1456 124.786 99.9379 123.876 100.388Z" fill="#407BFF"/>
<path d="M121.034 111.067C121.034 111.067 125.593 110.023 123.654 103.356C123.582 103.099 123.569 102.829 123.617 102.567C123.665 102.305 123.772 102.057 123.931 101.843C124.09 101.629 124.295 101.453 124.532 101.331C124.769 101.208 125.03 101.142 125.297 101.136C130.432 100.995 135.235 99.9222 134.554 96.9474C133.703 93.1882 120.909 90.2874 118.585 97.8132C114.049 98.8714 113.879 107.811 121.034 111.067Z" fill="#263238"/>
<path d="M121.057 109.749C122.356 110.199 123.584 110.832 124.705 111.629C124.061 110.075 123.484 109.12 121.057 109.749Z" fill="#263238"/>
<path d="M121.804 110.008C122.856 109.799 123.932 109.739 125.001 109.831C123.957 109.039 123.195 108.632 121.804 110.008Z" fill="#263238"/>
<path d="M118.104 111.303C118.695 112.418 119.703 113.254 120.909 113.627C122.514 114.108 123.343 112.687 122.929 111.155C122.551 109.779 121.264 107.877 119.643 108.062C119.291 108.111 118.956 108.247 118.669 108.457C118.382 108.667 118.151 108.946 117.999 109.267C117.846 109.589 117.776 109.943 117.794 110.299C117.813 110.654 117.919 110.999 118.104 111.303Z" fill="#FFC3BD"/>
<path d="M129.84 106.131C129.944 106.649 130.307 107.019 130.64 106.952C130.973 106.886 131.172 106.405 131.076 105.887C130.98 105.369 130.61 104.999 130.27 105.065C129.929 105.132 129.737 105.605 129.84 106.131Z" fill="#263238"/>
<path d="M135.723 104.969C135.827 105.494 136.182 105.857 136.523 105.79C136.863 105.724 137.055 105.25 136.952 104.732C136.848 104.214 136.493 103.844 136.153 103.911C135.812 103.977 135.62 104.451 135.723 104.969Z" fill="#263238"/>
<path d="M136.012 103.97L137.189 103.363C137.189 103.363 136.737 104.466 136.012 103.97Z" fill="#263238"/>
<path d="M133.703 106.271C134.4 107.368 135.244 108.364 136.212 109.231C135.986 109.479 135.708 109.673 135.399 109.801C135.089 109.929 134.756 109.987 134.421 109.971L133.703 106.271Z" fill="#ED847E"/>
<path d="M132.016 112.421C130.921 112.435 129.862 112.03 129.056 111.289C129.032 111.264 129.019 111.231 129.019 111.196C129.019 111.162 129.032 111.128 129.056 111.104C129.081 111.08 129.114 111.066 129.148 111.066C129.183 111.066 129.216 111.08 129.241 111.104C129.739 111.543 130.334 111.858 130.977 112.024C131.62 112.19 132.293 112.202 132.941 112.058C132.974 112.052 133.009 112.06 133.036 112.079C133.064 112.099 133.083 112.128 133.089 112.162C133.095 112.195 133.087 112.229 133.068 112.257C133.048 112.285 133.019 112.304 132.985 112.31C132.667 112.381 132.342 112.419 132.016 112.421Z" fill="#263238"/>
<path d="M126.311 104.111C126.264 104.109 126.218 104.096 126.177 104.074C126.119 104.038 126.076 103.981 126.059 103.914C126.043 103.848 126.053 103.777 126.089 103.718C126.333 103.303 126.674 102.951 127.082 102.694C127.49 102.436 127.954 102.28 128.434 102.238C128.503 102.238 128.568 102.264 128.618 102.311C128.667 102.358 128.697 102.422 128.701 102.49C128.702 102.524 128.696 102.558 128.684 102.59C128.672 102.621 128.654 102.651 128.63 102.675C128.607 102.7 128.579 102.72 128.548 102.734C128.517 102.748 128.483 102.755 128.449 102.756C128.052 102.8 127.671 102.938 127.338 103.158C127.005 103.378 126.729 103.674 126.533 104.022C126.505 104.053 126.471 104.078 126.432 104.093C126.394 104.109 126.352 104.115 126.311 104.111Z" fill="#263238"/>
<path d="M137.359 102.024C137.318 102.035 137.274 102.035 137.233 102.024C136.888 101.82 136.5 101.701 136.1 101.675C135.7 101.649 135.3 101.718 134.932 101.876C134.866 101.909 134.79 101.915 134.719 101.892C134.649 101.869 134.591 101.819 134.558 101.754C134.525 101.688 134.519 101.612 134.542 101.542C134.564 101.471 134.614 101.413 134.68 101.38C135.123 101.179 135.608 101.088 136.094 101.116C136.58 101.143 137.052 101.287 137.47 101.535C137.499 101.552 137.525 101.573 137.546 101.6C137.567 101.626 137.582 101.657 137.591 101.689C137.6 101.721 137.603 101.755 137.598 101.789C137.594 101.822 137.583 101.854 137.566 101.883C137.547 101.923 137.518 101.957 137.482 101.982C137.445 102.007 137.403 102.021 137.359 102.024Z" fill="#263238"/>
<path d="M122.551 175.054L128.471 175.469L125.8 181.796C125.8 181.796 120.857 180.234 120.657 176.616L122.551 175.054Z" fill="#FFC3BD"/>
<path d="M130.743 179.05L127.879 183.372L125.807 181.796L128.494 175.469L130.743 179.05Z" fill="#FFC3BD"/>
<path d="M130.129 105.124L131.306 104.518C131.306 104.518 130.854 105.62 130.129 105.124Z" fill="#263238"/>
</svg>
