<svg width="40" height="40" viewBox="0 0 40 40" fill="none" xmlns="http://www.w3.org/2000/svg">
<circle cx="20" cy="20" r="20" fill="#F0F5FF"/>
<path fill-rule="evenodd" clip-rule="evenodd" d="M27.0019 21.317C27.2999 21.4753 27.5299 21.7253 27.6917 21.9753C28.0068 22.492 27.9812 23.1253 27.6747 23.6837L27.0785 24.6837C26.7634 25.217 26.1758 25.5503 25.5711 25.5503C25.2731 25.5503 24.9409 25.467 24.6684 25.3003C24.447 25.1587 24.1915 25.1087 23.919 25.1087C23.0759 25.1087 22.369 25.8003 22.3435 26.6253C22.3435 27.5837 21.5599 28.3337 20.5806 28.3337H19.4224C18.4345 28.3337 17.651 27.5837 17.651 26.6253C17.6339 25.8003 16.9271 25.1087 16.084 25.1087C15.8029 25.1087 15.5474 25.1587 15.3345 25.3003C15.062 25.467 14.7214 25.5503 14.4318 25.5503C13.8186 25.5503 13.231 25.217 12.9159 24.6837L12.3283 23.6837C12.0132 23.142 11.9961 22.492 12.3112 21.9753C12.4475 21.7253 12.703 21.4753 12.9925 21.317C13.231 21.2003 13.3843 21.0087 13.5291 20.7837C13.9549 20.067 13.6994 19.1253 12.9755 18.7003C12.1324 18.2253 11.8599 17.167 12.3453 16.342L12.9159 15.3587C13.4098 14.5337 14.4659 14.242 15.3175 14.7253C16.0584 15.1253 17.0208 14.8587 17.4551 14.1503C17.5913 13.917 17.668 13.667 17.651 13.417C17.6339 13.092 17.7276 12.7837 17.8894 12.5337C18.2045 12.017 18.7751 11.6837 19.3968 11.667H20.5976C21.2278 11.667 21.7984 12.017 22.1135 12.5337C22.2668 12.7837 22.369 13.092 22.3435 13.417C22.3264 13.667 22.4031 13.917 22.5393 14.1503C22.9737 14.8587 23.936 15.1253 24.6854 14.7253C25.5286 14.242 26.5931 14.5337 27.0785 15.3587L27.6491 16.342C28.1431 17.167 27.8705 18.2253 27.0189 18.7003C26.295 19.1253 26.0395 20.067 26.4739 20.7837C26.6101 21.0087 26.7634 21.2003 27.0019 21.317ZM17.5913 20.0087C17.5913 21.317 18.6729 22.3587 20.01 22.3587C21.347 22.3587 22.4031 21.317 22.4031 20.0087C22.4031 18.7003 21.347 17.6503 20.01 17.6503C18.6729 17.6503 17.5913 18.7003 17.5913 20.0087Z" fill="#3784FB"/>
</svg>
